<?xml version="1.0" standalone="no"?>
<!DOCTYPE svg PUBLIC "-//W3C//DTD SVG 1.1//EN" "http://www.w3.org/Graphics/SVG/1.1/DTD/svg11.dtd" >
<!--
2013-9-30: Created.
-->
<svg>
<metadata>
Created by iconfont
</metadata>
<defs>

<font id="iconfont" horiz-adv-x="1024" >
  <font-face
    font-family="iconfont"
    font-weight="500"
    font-stretch="normal"
    units-per-em="1024"
    ascent="896"
    descent="-128"
  />
    <missing-glyph />
    
    <glyph glyph-name="EPCzuodaohangtubiao-" unicode="&#59232;" d="M796.444444 162.133333c-22.755556 11.377778-51.2 0-62.577777-22.755555-11.377778-22.755556 0-51.2 22.755555-62.577778 5.688889 0 11.377778 0 11.377778-5.688889 22.755556-5.688889 39.822222 5.688889 51.2 22.755556 11.377778 17.066667 5.688889 39.822222-5.688889 51.2-5.688889 11.377778-11.377778 17.066667-17.066667 17.066666zM927.288889 99.555556c17.066667 5.688889 28.444444 5.688889 39.822222 11.377777v34.133334c-11.377778 0-22.755556 5.688889-39.822222 5.688889 0 11.377778-5.688889 17.066667-5.688889 28.444444l28.444444 28.444444c-5.688889 11.377778-11.377778 17.066667-17.066666 28.444445-11.377778-5.688889-22.755556-5.688889-39.822222-11.377778-5.688889 5.688889-11.377778 11.377778-22.755556 17.066667 5.688889 17.066667 5.688889 28.444444 11.377778 39.822222-11.377778 5.688889-22.755556 11.377778-28.444445 17.066667l-5.688889-5.688889c-5.688889-5.688889-11.377778-17.066667-22.755555-28.444445h-11.377778c-5.688889 5.688889-11.377778 5.688889-17.066667 5.688889-5.688889 17.066667-5.688889 28.444444-11.377777 39.822222h-34.133334-5.688889c0-11.377778-5.688889-22.755556-5.688888-39.822222-5.688889 0-17.066667-5.688889-22.755556-5.688889l-28.444444 28.444445c-5.688889-5.688889-11.377778-5.688889-17.066667-11.377778-5.688889 0-5.688889-5.688889-11.377778-5.688889 5.688889-11.377778 5.688889-22.755556 11.377778-39.822222l-17.066667-17.066667h-5.688889c-11.377778 5.688889-28.444444 5.688889-34.133333 11.377778 0 0 0-5.688889-5.688889-11.377778s-5.688889-17.066667-11.377778-22.755555l11.377778-11.377778c5.688889-5.688889 11.377778-11.377778 17.066667-11.377778 0-11.377778-5.688889-17.066667-5.688889-28.444444-17.066667-5.688889-28.444444-5.688889-39.822222-11.377778v-34.133333c11.377778 0 22.755556-5.688889 39.822222-5.688889 0-5.688889 5.688889-11.377778 5.688889-11.377778 0-5.688889 0-11.377778 5.688889-11.377778l-17.066667-17.066667-11.377778-11.377777c5.688889-11.377778 11.377778-17.066667 17.066667-28.444445 11.377778 5.688889 22.755556 5.688889 39.822222 11.377778 5.688889-5.688889 11.377778-11.377778 22.755556-17.066667-5.688889-17.066667-5.688889-28.444444-11.377778-39.822222 11.377778-5.688889 22.755556-11.377778 28.444444-17.066667l28.444445 28.444445c11.377778 0 17.066667-5.688889 28.444444-5.688889 5.688889-17.066667 5.688889-28.444444 11.377778-39.822222h34.133333c0 11.377778 5.688889 22.755556 5.688889 39.822222 11.377778 0 17.066667 5.688889 28.444445 5.688889l28.444444-28.444445c11.377778 5.688889 17.066667 11.377778 28.444445 17.066667-5.688889 11.377778-5.688889 22.755556-11.377778 39.822222 5.688889 5.688889 11.377778 11.377778 17.066666 22.755556 17.066667-5.688889 28.444444-5.688889 39.822223-11.377778 5.688889 11.377778 11.377778 22.755556 17.066666 28.444445l-28.444444 28.444444V99.555556z m-136.533333-91.022223c-34.133333-5.688889-68.266667 5.688889-91.022223 28.444445-11.377778 11.377778-17.066667 17.066667-22.755555 28.444444-5.688889 11.377778-11.377778 22.755556-11.377778 34.133334-5.688889 28.444444 5.688889 51.2 17.066667 73.955555 11.377778 17.066667 28.444444 28.444444 45.511111 39.822222 11.377778 5.688889 22.755556 11.377778 34.133333 11.377778 17.066667 0 34.133333 0 51.2-5.688889 11.377778-5.688889 22.755556-11.377778 28.444445-17.066666 22.755556-17.066667 39.822222-45.511111 39.822222-73.955556 11.377778-56.888889-28.444444-108.088889-91.022222-119.466667zM574.577778-14.222222H164.977778c-28.444444 0-51.2 22.755556-51.2 51.2V611.555556c0 34.133333 22.755556 56.888889 56.888889 56.888888h79.644444v-113.777777h403.911111V668.444444H739.555556c34.133333 0 56.888889-22.755556 56.888888-56.888888v-256c17.066667 0 39.822222-5.688889 56.888889-11.377778V611.555556c0 62.577778-51.2 113.777778-113.777777 113.777777h-85.333334V782.222222h-73.955555C551.822222 816.355556 506.311111 839.111111 455.111111 839.111111c-51.2 0-96.711111-22.755556-125.155555-56.888889H256v-56.888889H170.666667c-62.577778 0-113.777778-51.2-113.777778-113.777777v-568.888889c0-62.577778 51.2-113.777778 113.777778-113.777778h455.111111c-17.066667 17.066667-34.133333 34.133333-51.2 56.888889zM318.577778 725.333333h51.2c0 34.133333 39.822222 62.577778 85.333333 62.577778s85.333333-28.444444 85.333333-62.577778h51.2v-119.466666H318.577778V725.333333zM580.266667 304.355556H216.177778v-56.888889h364.088889v56.888889zM216.177778 452.266667h489.244444v-56.888889H216.177778zM216.177778 156.444444h307.2v-56.888888H216.177778z"  horiz-adv-x="1024" />

    
    <glyph glyph-name="xinfeng" unicode="&#58895;" d="M862.976-2.688H161.024a160.192 160.192 0 0 0-160 160V594.752c0 88.192 71.808 160 160 160h702.016c88.256 0 160-71.808 160-160v-437.44a160.256 160.256 0 0 0-160.064-160zM161.024 690.752c-52.928 0-96-43.072-96-96v-437.44c0-52.928 43.072-96 96-96h702.016c52.928 0 96 43.072 96 96V594.752c0 52.928-43.072 96-96 96H161.024zM512 235.968a32.128 32.128 0 0 0-20.992 7.808l-400.896 348.16a32 32 0 0 0 41.92 48.32L512 310.336l379.968 329.92a32 32 0 1 0 41.984-48.32l-400.96-348.16a32.128 32.128 0 0 0-20.992-7.808z"  horiz-adv-x="1024" />

    
    <glyph glyph-name="chanpin1" unicode="&#58890;" d="M389.6271875 797.7937500099999c-0.1284375 0-0.1096875-291.4209375-0.1096875-291.42093751 0 0.1284375-291.4209375 0.1096875-291.4209375 0.1096875 0.1284375 0 0.110625 291.4209375 0.110625 291.4209375 0-0.1284375 291.42-0.110625 291.42-0.110625zM32 506.371875c0-36.3946875 29.6184375-66.0965625 66.0965625-66.0965625H389.628125c36.3946875 0 66.0965625 29.6175 66.0965625 66.0965625V797.9034375C455.72375001 834.2971875 426.10624999 864 389.628125 864H98.0965625C61.7028125 864 32 834.3815625 32 797.9034375V506.371875zM925.9034375 797.7928125c-0.1284375 0-0.110625-291.42-0.110625-291.42 0 0.1284375-291.42 0.1096875-291.42 0.1096875 0.1284375 0 0.1096875 291.4209375 0.1096875 291.4209375 0-0.1284375 291.4209375-0.110625 291.4209375-0.110625z m-357.628125-291.42c0-36.3946875 29.6184375-66.0965625 66.0975-66.09656249h291.530625c36.39375001 0 66.0965625 29.6175 66.0965625 66.09656249V797.9034375C992 834.2971875 962.3815625 864 925.9034375 864H634.371875c-36.3946875 0-66.0965625-29.6184375-66.0965625-66.0965625V506.371875zM389.628125 261.51656249999996c-0.1284375 0-0.1096875-291.42-0.1096875-291.42 0 0.1284375-291.4209375 0.110625-291.4209375 0.110625 0.1284375 0 0.110625 291.42 0.110625 291.42 0-0.1284375 291.42-0.1096875 291.42-0.1096875zM32-29.902500000000032C32-66.29718749999995 61.6184375-96 98.0965625-96H389.628125c36.3946875 0 66.0965625 29.6184375 66.0965625 66.0965625V261.62812499999995c0 36.3946875-29.6175 66.0965625-66.0965625 66.0965625H98.0965625C61.7028125 327.72375001 32 298.10624999000004 32 261.62812499999995v-291.530625z m893.9034375 291.4209375c-0.1284375 0-0.110625-291.4209375-0.110625-291.4209375 0 0.1284375-291.42 0.110625-291.42 0.110625 0.1284375 0 0.1096875 291.42 0.1096875 291.42 0-0.1284375 291.4209375-0.1096875 291.4209375-0.1096875z m-357.628125-291.4209375c0-36.39375001 29.6184375-66.0965625 66.0975-66.0965625h291.530625c36.39375001 0 66.0965625 29.6184375 66.0965625 66.0965625V261.62812499999995c0 36.3946875-29.6184375 66.0965625-66.0965625 66.0965625H634.371875c-36.3946875 0-66.0965625-29.6175-66.0965625-66.0965625v-291.530625z"  horiz-adv-x="1024" />

    
    <glyph glyph-name="tuandui" unicode="&#58984;" d="M387.072 346.112c6.144 0 11.776-0.512 17.92-0.512 0 0-0.512 0-0.512 0.512 13.312 0 24.064 10.75712 24.064 24.064 0 13.312-10.752 24.064-24.064 24.064-9.216-1.024-18.944-1.024-28.672-0.512-81.408 5.12-147.456 71.168-153.088 153.088-6.144 98.816 75.264 180.736 174.592 174.592h1.024c13.312 0 23.552 10.752 23.552 23.552s-10.752 23.552-23.552 23.552h-3.072C275.456 773.12 175.616 676.864 175.616 557.568c0-77.824 41.984-145.92 104.96-182.272-121.344-43.52-208.384-159.232-208.384-295.936 0-9.216 0.512-18.944 1.536-28.16 1.536-13.312 13.312-22.528 25.6-20.992 12.8 1.536 21.504 12.8 20.48 25.08288-1.024 8.19712-1.024 15.36-1.024 24.064 1.024 147.46112 120.832 266.75712 268.288 266.75712zM843.264 557.056c0 4.608 0 9.216-0.51712 13.824C835.584 688.128 739.328 782.336 622.08 786.944c-131.072 5.12-239.616-100.352-239.616-230.4 0-84.992 46.08-159.232 114.688-199.168-132.608-47.616-227.328-174.08-227.328-323.072 0-10.24 0.512-20.48 1.536-30.72 1.536-14.336 14.336-24.576 28.16-23.04s23.552 13.824 22.528 27.64288c-1.024 8.704-1.024 16.90112-1.024 26.11712 0 160.76288 130.048 291.32288 290.816 291.84 127.488 0 230.4 102.912 230.4 229.888 1.024 0.512 1.024 1.024 1.024 1.024z m-242.176-179.2C512 383.488 439.808 455.68 434.176 544.768c-6.656 108.032 82.432 197.12 190.464 190.464 89.088-5.632 161.28-77.824 166.912-166.912 7.168-108.032-82.432-197.632-190.464-190.464z m248.832-100.352c-4.608 4.60288-10.752 7.16288-17.92 7.16288-14.336 0-25.6-11.25888-25.6-25.6 0-6.656 2.56-12.28288 6.144-16.896 0.512-0.512 0.512-1.024 1.024-1.024 53.24288-52.736 86.016-125.952 86.016-206.84288 0-9.216 0-17.408-1.024-26.11712-1.024-13.81888 8.704-26.112 22.528-27.64288 13.81888-1.536 26.61888 8.704 28.16 23.04 1.01888 10.24 1.536 20.48 1.536 30.72 0 95.232-38.4 181.248-100.864 243.2z"  horiz-adv-x="1024" />

    
    <glyph glyph-name="jingyan" unicode="&#58889;" d="M512-128C229.239467-128 0 101.239467 0 384 0 666.760533 229.239467 896 512 896c282.760533 0 512-229.239467 512-512 0-282.760533-229.239467-512-512-512z m307.2 785.066667H375.466667a170.666667 170.666667 0 0 1-170.666667-170.666667v-375.466667h443.733333a170.666667 170.666667 0 0 1 170.666667 170.666667V657.066667z m-170.666667-477.866667H273.066667v307.2c0 56.456533 45.943467 102.4 102.4 102.4h375.466666v-307.2c0-56.456533-45.943467-102.4-102.4-102.4z m34.133334 307.2H341.333333v-68.266667h341.333334v68.266667z m0-136.533333H341.333333v-68.266667h341.333334v68.266667z"  horiz-adv-x="1024" />

    
    <glyph glyph-name="jishuzhichi" unicode="&#59097;" d="M958.78543 793.328036c-53.694379 54.184636-140.667781 54.184636-194.308833 0L420.967781 446.528475l194.308834-196.259542 343.507095 346.804722c53.696099 54.239683 53.696099 142.069745 0.00172 196.254381zM537.559618 442.262374l-23.155636 23.339698L804.891017 758.951524c6.335503 6.402591 16.696279 6.402591 23.222725 0 6.333783-6.400871 6.333783-16.88034 0-23.343139L537.559618 442.262374z m48.397878-48.76256l-23.224445 23.344859L877.421606 734.45069c6.333783 6.457638 16.697999 6.457638 23.157356 0.061927 6.344104-6.462798 6.344104-16.885501-0.120414-23.344859L585.957496 393.499814z m48.330789-48.819326l-23.215843 23.339697 290.418227 293.294405c6.344104 6.455917 16.699719 6.39743 23.09887 0 6.400871-6.400871 6.344104-16.885501 0-23.343138l-290.301254-293.290964zM358.373079 92.774138l-17.614866 17.800648 161.883029 163.520662-63.631984 64.309744-161.941517-163.527543-17.313831 17.492732-38.092148-20.059273-127.322456-208.201183 37.911528-38.331257 204.485547 127.379223zM240.866095 840.017753c-18.652148 0-36.57321-2.623308-53.819954-7.07347 1.703-1.520658 3.719076-2.681795 5.301662-4.384794l78.25886-78.991666c39.858796-40.225199 39.858796-105.565343 0-145.790542-39.860516-40.225199-104.529782-40.225199-144.390297 0L47.960946 682.7053c-4.083759 4.145686-7.494919 8.714542-10.787385 13.350486-8.473714-23.5272-13.350486-48.698913-13.350486-75.150456 0-120.983512 97.155277-219.053936 217.0413-219.053936 119.824096 0 216.979373 98.127191 216.979372 219.114143 0 120.981792-97.215484 219.052216-216.977652 219.052216zM903.988402-26.619908c47.05956 47.601424 47.05956 124.757635 0 172.359059L730.648829 320.606264l-170.717986-172.247246L733.39255-26.621628c47.109446-47.542937 123.482965-47.542937 170.595852 0.00172z m-115.68185 116.842987a49.567615 49.567615 0 0 0 70.5816 0c19.505368-19.69287 19.505368-51.633577 0-71.371173-19.507088-19.625782-51.072791-19.625782-70.5816 0-19.501928 19.804683-19.501928 51.678302 0 71.371173z"  horiz-adv-x="1024" />

    
    <glyph glyph-name="weibiaoti-" unicode="&#58925;" d="M797.269333 896.085333c-95.488 0-184.234667-47.530667-242.602666-125.952C496.298667 848.554667 407.552 896.085333 312.064 896.085333 139.946667 896.085333 0 744.106667 0 557.312c0-111.36 50.090667-189.610667 90.453333-252.416 117.077333-182.357333 411.648-409.429333 424.106667-418.986667a65.450667 65.450667 0 0 1 80.128 0c12.544 9.557333 307.029333 236.629333 424.106667 418.986667C1059.157333 367.786667 1109.333333 445.952 1109.333333 557.312c0 186.794667-140.032 338.773333-312.064 338.773333z m164.608-548.010666C850.346667 174.336 554.666667-52.565333 554.666667-52.565333S258.901333 174.336 147.370667 348.074667C106.24 412.16 69.461333 473.173333 69.461333 557.312 69.461333 702.72 178.005333 820.736 312.064 820.736c98.986667 0 183.978667-64.512 221.696-156.928v0.512h0.085333a22.186667 22.186667 0 0 1 20.821334-16.64c9.728 0 17.92 6.997333 20.736 16.64h0.256C613.461333 756.394667 698.368 820.736 797.269333 820.736c133.973333 0 242.602667-118.016 242.602667-263.424 0-84.138667-36.864-145.152-77.994667-209.237333z"  horiz-adv-x="1109" />

    
    <glyph glyph-name="shouhou" unicode="&#58896;" d="M884.8 552C867.2 617.6 788.8 832 508.8 832 230.4 832 152 617.6 136 552 83.2 531.2 11.2 476.8 11.2 369.6c0-104 73.6-164.8 123.2-187.2 6.4-41.6 27.2-132.8 116.8-187.2 64-41.6 140.8-49.6 193.6-52.8 11.2-22.4 33.6-36.8 59.2-36.8 38.4 0 68.8 30.4 68.8 68.8 0 36.8-30.4 68.8-68.8 68.8-27.2 0-49.6-16-60.8-41.6-44.8 1.6-108.8 11.2-161.6 43.2-84.8 52.8-89.6 155.2-89.6 160v320c4.8 27.2 54.4 246.4 318.4 246.4s313.6-220.8 318.4-246.4v-321.6c0-9.6 4.8-17.6 11.2-25.6 4.8-4.8 11.2-6.4 17.6-6.4 1.6 0 6.4 0 9.6 1.6 49.6 16 144 75.2 144 193.6-1.6 110.4-76.8 164.8-126.4 185.6M131.2 252.8c-27.2 20.8-60.8 54.4-60.8 116.8 0 60.8 33.6 96 60.8 112v-228.8z m758.4 0V481.6c27.2-17.6 60.8-52.8 60.8-112s-33.6-96-60.8-116.8"  horiz-adv-x="1024" />

    
    <glyph glyph-name="tongzhi" unicode="&#58909;" d="M556.8 780.8 320 640l0-448 236.8-140.8c44.8-25.6 83.2-6.4 83.2 44.8l0 640C640 787.2 601.6 812.8 556.8 780.8zM64 544l0-256C64 236.8 108.8 192 160 192L256 192 256 640 160 640C108.8 640 64 595.2 64 544zM928 448l-128 0C780.8 448 768 435.2 768 416 768 396.8 780.8 384 800 384l128 0C947.2 384 960 396.8 960 416 960 435.2 947.2 448 928 448zM908.8 121.6l-108.8 64c-12.8 6.4-32 6.4-44.8-12.8-6.4-12.8-6.4-32 12.8-44.8l108.8-64c12.8-6.4 32-6.4 44.8 12.8C928 89.6 921.6 115.2 908.8 121.6zM793.6 646.4l108.8 64c12.8 6.4 19.2 25.6 12.8 44.8C908.8 768 889.6 774.4 876.8 768l-108.8-64c-12.8-6.4-19.2-25.6-12.8-44.8C761.6 646.4 780.8 640 793.6 646.4z"  horiz-adv-x="1024" />

    
    <glyph glyph-name="shangcheng" unicode="&#58886;" d="M1012.226 562.088c-0.285 0.678-0.213 1.357-0.355 2.035L878.784 830.291c-8.991 17.483-27.222 29.471-48.274 29.471H194.668c-20.802 0-38.82-11.774-47.882-28.936L11.882 561.054c-5.494-12.488-9.74-26.118-9.74-40.676 0-5.78 1-11.346 2.176-16.841 11.204-52.199 53.412-92.909 106.432-101.9v-455.27c0-20.195 16.341-36.536 36.536-36.536h730.716c20.193 0 36.535 16.341 36.535 36.536V401.639c54.017 9.169 97.012 51.164 107.253 104.755 0.214 1.213 0.284 2.497 0.463 3.71 0.644 4.069 0.857 8.277 1.142 12.488-0.535 14.307-5.745 27.151-11.169 39.496zM841.465-17.097H183.822V409.774c16.733 7.101 31.504 17.732 43.849 30.684 8.564-8.992 18.447-16.448 29.222-22.727v-288.682c0-20.195 16.34-36.535 36.536-36.535h438.429c20.196 0 36.537 16.34 36.537 36.535v288.68c10.774 6.28 20.659 13.736 29.221 22.727 12.345-12.952 27.117-23.584 43.85-30.685v-426.868h-0.001z m-511.501 182.68V400.176c34.431 1.927 65.33 16.805 87.701 40.282 23.977-25.154 57.586-41.031 94.978-41.031 37.393 0 71.003 15.877 94.979 41.031 22.371-23.477 53.269-38.355 87.7-40.282v-234.593H329.964z m562.664 306.915c-29.792 0-54.16 22.479-57.765 51.308v-0.25c-2.427 18.231-18.16 32.396-37.07 32.396-18.483 0-33.859-13.451-36.82-31.077-0.038-0.285-0.071 1.142-0.145 3.71-1.249-31.112-26.757-56.088-58.191-56.088-30.936 0-56.088 24.226-58.087 54.662-0.036-1.786-0.036-2.928-0.07-2.749-2.427 18.232-18.161 32.397-37.07 32.397-18.483 0-33.86-13.451-36.821-31.077v0.142c-2.64-29.828-27.473-53.376-57.945-53.376-30.112 0-54.695 22.977-57.8 52.305-2.64 18.019-18.197 32.006-36.964 32.006-18.48 0-33.859-13.451-36.82-31.077-0.036-0.251-0.071 0.999-0.143 3.282-0.999-31.291-26.652-56.516-58.265-56.516-30.007 0-54.553 22.872-57.801 52.021v-0.107c-2.426 18.231-18.16 32.396-37.071 32.396-18.482 0-33.859-13.451-36.82-31.077-0.036-0.213-0.071 0.82-0.108 2.426-1.462-30.899-26.902-55.661-58.192-55.661-29.756 0-54.125 22.479-57.729 51.271L206.41 786.687h612.47l131.479-262.922c-3.605-28.79-27.972-51.267-57.731-51.267z"  horiz-adv-x="1024" />

    
    <glyph glyph-name="yonghu1" unicode="&#58887;" d="M799.093266 268.43257200000005c24.849364 0 31.119568 6.333326 31.119568 31.119568 0 14.349929-10.183821 26.09078-20.599092 34.317792l-1.977849 1.977849c-34.633407 26.785132-70.781762 52.307806-112.337642 68.172684 52.854871 45.364292 86.499353 112.569092 86.499353 187.68529 0 136.555777-110.75957 247.294306-247.315347 247.294306S287.208992 728.261532 287.208992 591.705755c0-75.116198 33.644482-142.320998 86.478312-187.68529C205.001993 339.298498 84.963363 176.18903999999998 84.858159-15.409866999999963l0-0.084164c0.105205-24.744159 10.962336-43.197074 35.664413-43.197074 24.912487 0 26.679927 17.884809 26.74305 42.607927 0 198.374093 119.218033 385.76481 387.237676 381.325169 81.34432-1.346621 176.659831-32.634516 234.77494-81.049746 15.780714-13.150595 19.252471-13.318922 26.30119-15.338854L799.093266 268.43257200000005zM534.503298 413.299525c-127.718577 0.252491-189.116075 91.612304-189.116075 178.40623 0 86.751844 70.150533 188.316518 189.368566 188.316518 138.533626 0 189.368566-102.616722 189.368566-189.368566C724.124355 503.838741 643.495428 410.017137 534.503298 413.299525L534.503298 413.299525zM616.941747 149.50911299999996c0-24.828323 20.136191-36.69542 44.964514-36.69542l239.86685 0c24.828323 0 44.964514 11.867097 44.964514 36.69542 0 24.870405-20.136191 34.317792-44.964514 34.317792l-239.86685 0C637.077938 183.826905 616.941747 174.37951799999996 616.941747 149.50911299999996L616.941747 149.50911299999996zM901.773111 3.253457000000026l-239.86685 0c-24.828323 0-44.964514-8.795118-44.964514-33.623441 0-24.870405 20.136191-33.896973 44.964514-33.896973l239.86685 0c24.828323 0 44.964514 9.047609 44.964514 33.896973C946.737625-5.541660999999976 926.601434 3.253457000000026 901.773111 3.253457000000026L901.773111 3.253457000000026zM901.773111 3.253457000000026"  horiz-adv-x="1024" />

    
    <glyph glyph-name="chanpin" unicode="&#58923;" d="M392.955867 420.374596h-220.4521a75.504844 75.504844 0 0 0-74.402583 75.504844v220.452099A75.504844 75.504844 0 0 0 173.606028 791.285253h220.452099a76.055974 76.055974 0 0 0 74.953714-76.055974v-220.452099a75.504844 75.504844 0 0 0-76.055974-74.402584z m-220.4521 330.678149a34.721206 34.721206 0 0 1-34.170075-34.721206v-220.452099a34.170075 34.170075 0 0 1 34.170075-34.170075h220.4521a34.721206 34.721206 0 0 1 34.721205 34.170075v220.452099a34.721206 34.721206 0 0 1-34.721205 34.721206zM392.955867-53.59741699999995h-220.4521a75.504844 75.504844 0 0 0-75.504843 76.055975v220.452099a75.504844 75.504844 0 0 0 75.504843 76.055974h220.4521a76.055974 76.055974 0 0 0 76.055974-76.055974v-220.452099a76.055974 76.055974 0 0 0-76.055974-76.055975z m-220.4521 330.678149a34.721206 34.721206 0 0 1-34.170075-34.721206v-220.452099a34.721206 34.721206 0 0 1 34.170075-34.721205h220.4521a34.721206 34.721206 0 0 1 34.721205 34.721205v220.452099a34.721206 34.721206 0 0 1-34.721205 34.721206zM852.598493-53.59741699999995h-220.452099a76.055974 76.055974 0 0 0-75.504844 76.055975v220.452099a76.055974 76.055974 0 0 0 75.504844 76.055974h220.452099a76.055974 76.055974 0 0 0 75.504844-76.055974v-220.452099a76.055974 76.055974 0 0 0-75.504844-76.055975z m-220.452099 330.678149a34.721206 34.721206 0 0 1-34.170075-34.721206v-220.452099a34.721206 34.721206 0 0 1 34.170075-34.721205h220.452099a34.721206 34.721206 0 0 1 34.170075 34.721205v220.452099a34.721206 34.721206 0 0 1-34.170075 34.721206zM742.372443 374.63078599999994a77.709365 77.709365 0 0 0-55.113024 22.04521L534.04521 552.094726a74.402583 74.402583 0 0 0-22.04521 55.113024 73.851453 73.851453 0 0 0 22.04521 55.113025l154.867599 152.111948a76.055974 76.055974 0 0 0 107.470399 0l154.867599-155.418729a74.953714 74.953714 0 0 0 0-106.919268l-154.867599-155.41873a77.709365 77.709365 0 0 0-54.010765-22.04521z m0 420.512379A34.170075 34.170075 0 0 1 716.469322 785.77395l-153.214209-155.96986a32.516685 32.516685 0 0 1-9.920344-24.24973 33.067815 33.067815 0 0 1 9.920344-24.249731L716.469322 425.885899a35.272336 35.272336 0 0 1 49.050592 0l154.867599 155.41873a33.618945 33.618945 0 0 1 0 48.499461L767.173305 785.77395a34.721206 34.721206 0 0 1-24.800862 9.369215z"  horiz-adv-x="1024" />

    
    <glyph glyph-name="kaifazhong" unicode="&#58900;" d="M880.64 537.6H61.44v-423.936c0-34.816 26.624-61.44 61.44-61.44H614.4c12.288 0 20.48-8.192 20.48-20.48s-8.192-20.48-20.48-20.48H122.88c-57.344 0-102.4 45.056-102.4 102.4v552.96c0 57.344 45.056 102.4 102.4 102.4H819.2c57.344 0 102.4-45.056 102.4-102.4v-176.128c0-12.288-8.192-20.48-20.48-20.48s-20.48 8.192-20.48 20.48V537.6z m0 40.96v88.064c0 34.816-26.624 61.44-61.44 61.44H122.88c-34.816 0-61.44-26.624-61.44-61.44v-88.064h819.2z m-204.8 51.2c-12.288 0-20.48 8.192-20.48 20.48s8.192 20.48 20.48 20.48 20.48-8.192 20.48-20.48-8.192-20.48-20.48-20.48z m61.44 0c-12.288 0-20.48 8.192-20.48 20.48s8.192 20.48 20.48 20.48 20.48-8.192 20.48-20.48-8.192-20.48-20.48-20.48z m61.44 0c-12.288 0-20.48 8.192-20.48 20.48s8.192 20.48 20.48 20.48 20.48-8.192 20.48-20.48-8.192-20.48-20.48-20.48zM350.208 388.096c6.144 10.24 18.432 12.288 28.672 8.192 10.24-6.144 12.288-18.432 8.192-28.672l-102.4-178.176c-6.144-10.24-18.432-12.288-28.672-8.192s-12.288 18.432-8.192 28.672l102.4 178.176z m-126.976-6.144l-55.296-90.112 55.296-94.208c6.144-10.24 2.048-22.528-8.192-28.672-10.24-6.144-22.528-2.048-28.672 8.192L118.784 291.84l67.584 110.592c6.144 10.24 18.432 12.288 28.672 6.144 10.24-4.096 12.288-16.384 8.192-26.624z m188.416-184.32l55.296 94.208-55.296 90.112c-6.144 10.24-2.048 22.528 6.144 28.672 10.24 6.144 22.528 2.048 28.672-6.144l67.584-110.592L446.464 179.2c-6.144-10.24-18.432-12.288-28.672-8.192-8.192 4.096-10.24 18.432-6.144 26.624z m577.536 122.88l4.096-10.24-40.96-51.2c-8.192-10.24-8.192-26.624 0-36.864l38.912-47.104-4.096-10.24c-8.192-26.624-22.528-51.2-38.912-71.68l-8.192-10.24-61.44 10.24c-12.288 2.048-26.624-6.144-30.72-18.432l-20.48-61.44-10.24-2.048c-32.768-8.192-69.632-8.192-102.4 0l-12.288 2.048-20.48 61.44c-4.096 12.288-18.432 20.48-30.72 18.432l-63.488-10.24-8.192 8.192c-8.192 10.24-16.384 20.48-22.528 32.768-8.192 12.288-14.336 26.624-18.432 40.96l-4.096 10.24 40.96 49.152c8.192 10.24 8.192 26.624 0 36.864l-40.96 49.152 4.096 10.24c10.24 26.624 22.528 51.2 40.96 73.728l8.192 8.192 61.44-10.24c12.288-2.048 26.624 6.144 30.72 18.432l22.528 61.44 10.24 2.048c32.768 6.144 67.584 6.144 100.352 0l12.288-2.048 20.48-59.392c4.096-12.288 18.432-20.48 30.72-20.48l63.488 8.192 8.192-8.192c8.192-10.24 16.384-20.48 22.528-32.768 8.192-12.288 14.336-24.576 18.432-38.912z m-53.248 20.48l-12.288 18.432-38.912-4.096c-32.768-4.096-65.536 16.384-75.776 47.104l-12.288 36.864c-20.48 4.096-40.96 4.096-61.44 0l-14.336-38.912c-10.24-30.72-45.056-51.2-75.776-45.056l-36.864 6.144c-10.24-12.288-16.384-26.624-22.528-40.96l26.624-30.72c20.48-24.576 20.48-63.488 0-90.112l-26.624-30.72c4.096-8.192 6.144-16.384 12.288-24.576 4.096-6.144 6.144-12.288 10.24-16.384l40.96 6.144c32.768 4.096 65.536-16.384 75.776-47.104l12.288-38.912c20.48-4.096 40.96-4.096 61.44 0l14.336 40.96c10.24 30.72 45.056 51.2 75.776 45.056L925.696 128c8.192 12.288 16.384 26.624 22.528 40.96l-24.576 28.672c-20.48 24.576-20.48 63.488-2.048 88.064l26.624 32.768c-4.096 6.144-8.192 14.336-12.288 22.528zM765.952 138.24c-57.344 0-102.4 45.056-102.4 102.4s45.056 102.4 102.4 102.4 102.4-45.056 102.4-102.4c0-55.296-47.104-102.4-102.4-102.4z m0 40.96c34.816 0 61.44 26.624 61.44 61.44s-26.624 61.44-61.44 61.44-61.44-26.624-61.44-61.44 26.624-61.44 61.44-61.44z"  horiz-adv-x="1024" />

    
    <glyph glyph-name="zhuye-copy" unicode="&#58885;" d="M929.9599 443.4381L591.0938 795.8723c-21.0616 21.8798-49.2104 33.9241-79.3743 33.9241-30.165 0-58.3137-12.0443-79.3754-33.9241L93.4789 443.4381c-34.9594-36.3766-30.464-67.8216-24.6866-80.9564 4.1134-9.3184 18.0378-34.9317 58.0936-34.9317h49.67424v-271.12448c0-61.5547 44.2522-119.5131 107.1145-119.5131h57.004032 87.250944v63.70816000000001V223.84127999999998c0 30.763-4.6602 47.9027 26.7848 47.9027h57.005055999999996 57.004032c31.445 0 26.7848-17.1397 26.7848-47.9027v-223.22073600000002-63.70816000000001h87.24992 57.005055999999996c62.8634 0 107.1145 57.9584 107.1145 119.5131v271.12448h49.67424c40.0548 0 53.9791 25.6143 58.0946 34.9317C960.4219 375.6165 964.9193 407.0615 929.9599 443.4381zM896.5519 383.35490000000004h-42.780672-28.500992-34.251776v-326.929408c0-30.764-19.8369-63.7082-51.2543-63.7082h-88.395776V223.84127999999998c0 61.5537-19.753 103.7076-82.644 103.7076h-57.004032-57.005055999999996c-62.889 0-82.644-42.154-82.644-103.7076v-231.123968h-88.394752c-31.4173 0-51.2553 32.9441-51.2553 63.7082V383.35488h-34.251776-28.502016-42.780672c-0.981 0-1.8801 3.842-2.6972 3.8963 1.9343 3.3782 5.2593 11.9347 10.7909 17.6845l338.9194 352.1894c10.11 10.5441 24.3866 17.0025 38.2566 16.8663 13.8424 0.1362 27.2773-6.3222 37.3852-16.8663l338.8918-352.1894c5.5593-5.7498 8.8832-14.3063 10.8175-17.6845C898.431 387.1969 897.5329 383.35490000000004 896.5519 383.35490000000004z"  horiz-adv-x="1024" />

    
    <glyph glyph-name="menu-two" unicode="&#58894;" d="M90.258176 47.477845340000044L933.08326402 47.477845340000044c46.36262401 0 84.29568-37.933056 84.29567998-84.29568s-37.933056-84.29568-84.29567999-84.29568001l-842.69337602 0c-46.36262401 0-84.29568 37.933056-84.29568 84.29568001-0.13171201 46.36262402 37.801344 84.29568 84.16396801 84.29568zM90.258176 460.13154133L928.078208 460.13154133c46.36262401 0 84.29568-37.933056 84.29568-84.29567999s-37.933056-84.29568-84.29568-84.29568l-837.820032 0c-46.36262401 0-84.29568 37.933056-84.29568 84.29568s37.933056 84.29568 84.29568 84.29567999zM90.258176 880.29282135L933.08326401 880.29282136c46.36262401 0 84.29568-37.933056 84.29567999-84.29568001s-37.933056-84.29568-84.29567999-84.29568003l-842.69337601 0c-46.36262401 0-84.29568 37.933056-84.29568001 84.29568003-0.13171201 46.36262402 37.801344 84.29568 84.16396801 84.29568z"  horiz-adv-x="1024" />

    
    <glyph glyph-name="28" unicode="&#58993;" d="M1099.704 220.629c0-62.715-49.549-113.889-112.261-113.889h-832.512c-62.693 0-114.537 51.176-114.537 113.889v529.78c0 62.715 51.844 113.59 114.537 113.59h832.512c62.712 0 112.261-50.877 112.261-113.59v-529.78zM1024.546 750.411c0 20.917-16.186 38.433-37.103 38.433h-832.512c-20.897 0-37.961-17.516-37.961-38.433v-529.778c0-20.917 17.063-38.73 37.961-38.73h832.512c20.917 0 37.103 17.814 37.103 38.73v529.778zM77.264 371.923h986.988v-75.159h-986.988v75.159zM816.715-81.865h-491.943c-20.896 0-37.84 16.664-37.84 37.58 0 20.913 16.943 37.58 37.84 37.58h491.942c20.914 0 37.839-16.667 37.839-37.58 0-20.916-16.924-37.58-37.838-37.58v0zM382.154 106.741h75.159v-151.735h-75.159v151.735zM645.917 106.741h76.579v-151.735h-76.579v151.735z"  horiz-adv-x="1166" />

    
    <glyph glyph-name="pingguo" unicode="&#58884;" d="M982.018 551.21c-45.451 68.175-143.923 109.836-223.459 94.686-37.873-7.574-71.963-22.723-109.836-34.085-22.723-7.574-45.451-7.574-71.963 0-15.15 7.574-34.085 11.362-49.237 18.938-90.898 34.085-170.434 11.362-234.821-53.025-60.599-56.813-83.324-128.773-87.11-212.098-3.788-162.861 56.813-302.996 162.861-424.194 30.299-34.085 68.175-56.813 113.622-45.451 22.723 3.788 45.451 15.15 64.387 22.723 37.873 15.15 75.748 22.723 117.411 11.362 22.723-3.788 41.663-15.15 64.387-22.723 60.599-22.723 109.836-15.15 155.285 34.085 41.663 45.451 75.748 98.474 102.26 155.285 7.574 18.938 18.938 41.663 26.511 60.599-166.646 75.748-178.010 299.209-30.299 393.894zM618.424 657.258c7.574 0 18.938 0 26.511 3.788 68.175 18.938 113.622 64.387 143.923 128.773 11.362 30.299 18.938 60.599 15.15 98.474-53.025-7.574-98.474-26.511-132.561-64.387-41.663-41.663-64.387-90.898-64.387-151.499 0-11.362 3.788-15.15 11.362-15.15z"  horiz-adv-x="1228" />

    
    <glyph glyph-name="anzhuo" unicode="&#58893;" d="M219.452051 571.713877h554.714903v-12.716998c0-138.038976 0.025-276.077951-0.012-414.116927-0.015-46.670992-24.905996-71.339987-71.779987-71.359987-11.659998-0.003-23.315996 0-34.176994 0 0-49.447991 0.537-97.503983-0.197-145.537975-0.455-29.787995-26.201995-54.51599-55.709991-55.59599-31.698994-1.164-60.635989 20.803996-61.759989 51.235991-1.814 49.203991-0.487 98.519983-0.487 148.841974H443.702012c0-19.544997 0.036-39.109993-0.008-58.67299-0.066-28.819995 0.553-57.66599-0.494-86.447985-1.024-28.175995-23.175996-51.211991-50.496991-54.66299-28.986995-3.663999-56.10399 13.125998-64.711989 40.556993-1.902 6.060999-3.019999 12.625998-3.059999 18.967996-0.27 40.953993-0.202 81.912986-0.076 122.866979 0.017 5.616999 0.96 11.234998 1.62 18.449997-13.789998 0-27.316995-0.082-40.844993 0.016-40.041993 0.29-66.099988 26.244995-66.132989 66.414988-0.11 140.311975-0.044 280.625951-0.045 420.939926v10.819998zM774.409954 612.65587H218.907052c5.160999 96.023983 59.71799 155.720973 140.813975 198.109965-8.263999 12.522998-16.286997 24.711996-24.343996 36.879993-5.855999 8.845998-11.794998 17.636997-17.624997 26.499996-4.109999 6.247999-10.697998 13.294998-1.563 19.531996 9.863998 6.733999 13.892998-2.686 18.244997-9.114998 10.409998-15.371997 20.680996-30.840995 30.984995-46.285992 12.689998-19.027997 12.677998-19.021997 34.489994-12.663998 69.374988 20.219996 138.289976 19.074997 206.727963-4.451999 2.451-0.845 4.959999-1.524 8.169999-2.499999 14.185998 21.243996 28.248995 42.308993 42.314992 63.369988 1.683 2.523 3.328999 5.066999 5.068 7.551999 3.959999 5.665999 8.991998 8.718998 15.322997 4.047999 5.729999-4.224999 4.755999-9.619998 1.139-15.023997-12.224998-18.261997-24.367996-36.577994-36.530994-54.87699-2.716-4.086999-5.386999-8.202999-8.493998-12.941998 80.650986-42.005993 135.695976-101.820982 140.782975-198.131965zM645.269977 720.667851c0.166 16.063997-13.281998 29.731995-29.434995 29.910995-16.303997 0.183-29.586995-12.944998-29.719995-29.366995-0.128-16.616997 12.601998-29.545995 29.194995-29.649995 16.526997-0.102 29.789995 12.783998 29.959995 29.105995z m-238.123959 0.711c-0.212 16.401997-13.602998 29.512995-29.835994 29.206995-16.117997-0.302-29.559995-14.109998-29.275995-30.079995 0.288-16.285997 13.659998-29.136995 30.132995-28.960995 16.561997 0.178 29.195995 13.181998 28.979994 29.833995zM932.444926 385.70991c-0.002-41.290993 0.106-82.583985-0.034-123.875979-0.126-36.345994-25.112996-62.589989-59.241989-62.567989-34.102994 0.021-59.30199 26.441995-59.33599 62.561989-0.078 83.721985-0.171 167.443971 0.068 251.163956 0.087 30.823995 22.669996 55.56299 52.467991 58.66399 31.012995 3.224999 58.18899-16.012997 64.758988-46.273992 1.268-5.842999 1.251-12.033998 1.266-18.068997 0.102-40.532993 0.053-81.067986 0.05-121.603978zM179.280058 385.70691c0-43.189992 0.41-86.380985-0.151999-129.559978-0.344-26.474995-18.983997-48.775991-44.351993-55.25199-24.803996-6.326999-52.006991 3.959999-64.701988 26.507996-5.174999 9.189998-8.923998 20.587996-9.010999 31.017994-0.711 84.857985-0.626 169.72097-0.288 254.580955 0.135 33.445994 26.529995 59.10399 59.36199 59.10399 32.969994-0.002 58.74699-25.270996 59.121989-59.10999 0.471-42.424993 0.114-84.860985 0.114-127.289977l-0.093 0.001z"  horiz-adv-x="1024" />

    
    <glyph glyph-name="shouji" unicode="&#59171;" d="M773.2 782.1v-801.5H251.6V782.1h521.6m5.6 50H246c-24.5 0-44.4-20.2-44.4-45.1v-811.4c0-24.9 19.9-45.1 44.4-45.1h532.8c24.5 0 44.4 20.2 44.4 45.1V787.1c0 24.9-19.9 45-44.4 45zM512.4 97.7c8 0 15.5-3.2 21.1-8.9 5.6-5.8 8.5-13.4 8.3-21.4-0.5-15.1-13.2-27.9-28.4-28.4h-1c-8 0-15.5 3.2-21.1 8.9-5.6 5.8-8.5 13.4-8.3 21.4 0.5 15.2 13.2 27.9 28.4 28.4h1m0 38h-2.2c-35.3-1.1-64-29.9-65.1-65.1-1.2-38.2 29.4-69.6 67.3-69.6h2.2c35.3 1.1 64 29.9 65.1 65.1 1.3 38.2-29.4 69.6-67.3 69.6zM709.3 726c3.7 0 6.6-3.1 6.6-6.9v-516.7c0-3.8-3-6.9-6.6-6.9H315.5c-3.7 0-6.6 3.1-6.6 6.9V719.1c0 3.8 3 6.9 6.6 6.9h393.8m0 38H315.5c-24.7 0-44.6-20.1-44.6-44.9v-516.7c0-24.8 20-44.9 44.6-44.9h393.7c24.7 0 44.6 20.1 44.6 44.9V719.1c0.1 24.8-19.9 44.9-44.5 44.9z"  horiz-adv-x="1024" />

    
    <glyph glyph-name="xiaochengxu" unicode="&#58966;" d="M305.2-0.1c-65.7 3.5-126 32.3-170 81.2-51.5 57.2-70.5 143.2-48.4 219.2 20.7 71.3 75.4 124.2 149.9 145.1 27.7 7.8 56.4-8.4 64.1-36.1 7.7-27.7-8.4-56.4-36.1-64.1-50.9-14.3-70.6-48.1-78.1-73.9-11.9-40.9-1.3-90.5 25.8-120.6 25.4-28.2 60.2-44.8 98.1-46.8s74.3 10.9 102.5 36.3c25.5 22.9 41.8 54.3 46 88.2 2.2 17.9-0.4 105.6-2.3 169.6-3.2 105.6-4.9 171.7-1.2 196.8 8.7 59.6 37 113.4 79.5 151.7 48.9 44 111.9 66.3 177.6 62.8 65.7-3.5 126-32.3 170-81.2 51.5-57.2 70.5-143.2 48.4-219.2-20.7-71.3-75.4-124.2-149.9-145.1-27.7-7.8-56.4 8.4-64.1 36.1-7.7 27.7 8.4 56.4 36.1 64.1 50.9 14.3 70.6 48.1 78.1 73.9 11.9 40.9 1.3 90.5-25.8 120.6-25.4 28.2-60.2 44.8-98.1 46.8-37.9 2-74.3-10.9-102.5-36.3-24.2-21.8-41-54.4-46.1-89.4-2.5-17.6 0.2-110.7 2.3-178.6 2.9-98.9 4.6-160.8 1.6-185.4-7.2-58.9-35.5-113.2-79.7-152.9-49-43.9-112.1-66.2-177.7-62.8z"  horiz-adv-x="1024" />

    
    <glyph glyph-name="add-material" unicode="&#58910;" d="M755.809524 347.428571h-219.428572v-219.428571h-73.142857v219.428571H243.809524v73.142858h219.428571v219.428571h73.142857v-219.428571h219.428572v-73.142858z"  horiz-adv-x="1024" />

    
    <glyph glyph-name="API" unicode="&#58922;" d="M1009.083246 896C1057.650103 896 1097.147246 855.771429 1097.147246 806.253714v-780.434285c0-49.737143-39.350857-89.819429-88.064-89.819429H88.068389A88.868571 88.868571 0 0 0 0.004389 25.746286V806.180571C0.004389 855.990857 39.355246 896 88.068389 896h921.014857zM91.43296 804.571429v-777.142858h914.285714V804.571429H91.43296z m0-137.142858h914.285714v-91.428571H91.43296v91.428571z m139.702857-478.354285l107.446857 269.897143h52.516572l107.52-269.897143h-47.542857l-27.501715 72.411428H306.107246l-28.745143-72.411428h-46.299429z m133.705143 228.717714L315.981531 290.304h96.256l-47.542857 127.488z m182.857143-228.790857V459.044571h116.297143c61.586286-0.877714 92.891429-29.184 93.622857-84.992 0.877714-57.490286-30.72-85.869714-94.939429-84.992h-71.241143v-100.059428h-43.739428z m43.739428 241.298286v-112.493715h62.464c40.886857-0.877714 60.416 18.285714 58.806858 57.490286 0.804571 37.522286-18.797714 55.808-58.806858 55.003429h-62.464z m225.353143-241.298286V459.044571h42.496v-270.043428h-42.496z"  horiz-adv-x="1097" />

    
    <glyph glyph-name="jiagou" unicode="&#58882;" d="M866.4 246.2H817v86.5c0 23.2-28.1 41.4-63.9 41.4H521.8v88.7h167.4c32.6 0 59.1 26.5 59.1 59V738.4c0 32.6-26.5 59.1-59.1 59.1H334.8c-32.6 0-59.1-26.5-59.1-59.1v-216.5c0-32.6 26.5-59.1 59.1-59.1h167.4v-88.7H270.7c-35.9 0-63.9-18.2-63.9-41.4v-86.5h-49.2c-32.6 0-59.1-26.5-59.1-59.1v-157.5c0-32.6 26.5-59.1 59.1-59.1h118.1c32.6 0 59.1 26.5 59.1 59.1V187.1c0 32.6-26.5 59.1-59.1 59.1h-49.3v86.5c0 10.3 18.9 21.8 44.3 21.8h231.5v-108.3h-49.3c-32.6 0-59.1-26.5-59.1-59.1v-157.5c0-32.6 26.5-59.1 59.1-59.1h118.2c15.8 0 30.7 6.2 41.8 17.4 11.1 11.2 17.2 26 17.1 41.7V187.1c0 32.6-26.5 59.1-59.1 59.1h-49.2V354.5H753c20.9 0 44.3-9.3 44.3-21.8v-86.5h-49.1c-32.6 0-59.1-26.5-59.1-59.1v-157.5c0-32.6 26.5-59.1 59.1-59.1h118.1c32.6 0 59.1 26.5 59.1 59.1V187.1c0.1 32.6-26.4 59.1-59 59.1zM315.1 521.9V738.4c0 10.9 8.8 19.7 19.7 19.7h354.4c10.9 0 19.7-8.8 19.7-19.7v-216.6c0-10.8-8.8-19.6-19.7-19.6H334.8c-10.9 0-19.7 8.8-19.7 19.7z m-19.7-334.8v-157.5c0-10.9-8.8-19.7-19.7-19.7H157.6c-10.9 0-19.7 8.8-19.7 19.7V187.1c0 10.9 8.8 19.7 19.7 19.7h118.1c10.9 0 19.7-8.8 19.7-19.7z m295.3 0v-157.6c0-5.2-2-10.1-5.7-13.8-3.7-3.7-8.7-5.8-13.9-5.8H452.9c-10.9 0-19.7 8.8-19.7 19.7V187.1c0 10.9 8.8 19.7 19.7 19.7H571c10.9 0 19.7-8.8 19.7-19.7z m295.4-157.5c0-10.9-8.8-19.7-19.7-19.7H748.3c-10.9 0-19.7 8.8-19.7 19.7V187.1c0 10.9 8.8 19.7 19.7 19.7h118.1c10.9 0 19.7-8.8 19.7-19.7v-157.5z"  horiz-adv-x="1024" />

    
    <glyph glyph-name="caidan" unicode="&#58883;" d="M925 634h-25.8c-15.5 0-28 12.5-28 28s12.5 28 28 28H925c15.5 0 28-12.5 28-28s-12.5-28-28-28zM790.3 633.2l-687.8 1.7c-15.5 0-28 12.6-27.9 28.1 0 15.4 12.6 27.9 28 27.9h0.1l687.7-1.7c15.5 0 28-12.6 27.9-28.1 0-15.5-12.5-27.9-28-27.9zM925 350.6H102.6c-15.5 0-28 12.5-28 28s12.5 28 28 28H925c15.5 0 28-12.5 28-28s-12.5-28-28-28zM925 67.3H102.6c-15.5 0-28 12.5-28 28s12.5 28 28 28H925c15.5 0 28-12.5 28-28s-12.5-28-28-28z"  horiz-adv-x="1024" />

    
    <glyph glyph-name="fuwu" unicode="&#58892;" d="M861.061 539.35h-28.624c-2.549 35.102-10.837 69.2-24.751 101.65-16.395 38.238-39.857 72.57-69.732 102.04-29.851 29.446-64.612 52.564-103.315 68.714-40.06 16.715-82.594 25.19-126.422 25.19-43.838 0-86.381-8.474-126.447-25.19-38.709-16.148-73.473-39.267-103.327-68.714-29.878-29.469-53.342-63.8-69.738-102.039-13.915-32.449-22.203-66.547-24.752-101.65H172.07c-42.523 0-77.118-33.078-77.118-73.737v-274.059c0-40.659 34.595-73.736 77.118-73.736h86.396c42.549 0 77.165 33.077 77.165 73.736V465.613c0 40.658-34.616 73.736-77.165 73.736h-26.369c12.102 139.636 131.31 249.628 276.12 249.628 144.788 0 263.977-109.991 276.077-249.628h-9.629c-42.549 0-77.165-33.077-77.165-73.736v-274.059c0-40.659 34.616-73.736 77.165-73.736h18.18c-5.06-47.77-26.99-82.956-65.382-104.725-12.647-7.17-25.424-11.918-36.496-15.055a66.991 66.991 0 0 1-4.388 9.88l-0.052 0.096c-12.489 22.652-36.92 36.724-63.761 36.724h-51.329c-39.688 0-71.976-30.813-71.976-68.688s32.288-68.687 71.976-68.687h51.329c29.24 0 54.445 16.733 65.699 40.685 16.625 3.493 38.659 10.038 60.803 22.279 38.768 21.429 84.759 64.184 91.776 147.489h20.017c42.498 0 77.072 33.077 77.072 73.737v274.06c0 40.659-34.574 73.736-77.072 73.736z m-573.397-73.737v-274.059c0-14.21-13.098-25.769-29.198-25.769H172.07c-16.074 0-29.151 11.56-29.151 25.77V465.612c0 14.209 13.077 25.769 29.15 25.769h86.397c16.1 0 29.198-11.56 29.198-25.77zM622.767-44.67h-51.329c-13.239 0-24.008 9.294-24.008 20.72s10.77 20.72 24.008 20.72h51.329c9.204 0 17.726-4.657 21.727-11.868 1.514-2.793 2.281-5.77 2.281-8.852 0-11.426-10.77-20.72-24.008-20.72z m267.399 236.223c0-14.21-13.056-25.769-29.105-25.769h-86.396c-16.099 0-29.198 11.56-29.198 25.77V465.612c0 14.209 13.098 25.769 29.198 25.769h86.396c16.05 0 29.105-11.56 29.105-25.77v-274.058z"  horiz-adv-x="1024" />

    
    <glyph glyph-name="yuanma" unicode="&#59203;" d="M956.992 887.264H66.304C34.24 887.264 8.224 860.32 8.224 827.2v-672.448c0-33.12 26.048-60.064 58.08-60.064h336.768v-153.28H316.224a30.304 30.304 0 0 1-30.336-30.24c0-16.704 13.568-30.272 30.336-30.272h390.848a30.304 30.304 0 0 1 30.336 30.272 30.304 30.304 0 0 1-30.336 30.24h-86.848v153.28h336.768c32.032 0 58.08 26.944 58.08 60.064V827.2c0 33.12-26.048 60.064-58.08 60.064zM559.552-58.56h-95.776v153.28h95.744v-153.28z m394.848 213.76H68.896V826.816h885.504V155.2zM272.704 345.28a30.304 30.304 0 0 1 42.88 0.64 30.176 30.176 0 0 1-0.64 42.784L216.256 484.16l97.056 81.056a30.176 30.176 0 0 1 3.776 42.592 30.4 30.4 0 0 1-42.752 3.776l-122.848-102.592a30.208 30.208 0 0 1-1.632-44.896l122.848-118.816z m437.28 219.936l97.024-81.056-98.656-95.456a30.176 30.176 0 0 1 21.12-51.968 30.304 30.304 0 0 1 21.12 8.544l122.848 118.816a30.208 30.208 0 0 1-1.632 44.896l-122.848 102.592a30.4 30.4 0 0 1-42.752-3.776 30.176 30.176 0 0 1 3.776-42.592z m-275.616-224.576a30.272 30.272 0 0 1 41.344 11.52l124.8 221.44a30.208 30.208 0 0 1-11.584 41.152 30.4 30.4 0 0 1-41.344-11.52l-124.8-221.44a30.208 30.208 0 0 1 11.584-41.152z"  horiz-adv-x="1024" />

    
    <glyph glyph-name="icon" unicode="&#58927;" d="M952.832 35.328c-15.36 0-27.648 12.288-27.648 27.648V734.72c0 33.792-27.648 61.44-61.44 61.44H192.512c-15.36 0-27.648 12.288-27.648 27.648s12.288 27.648 27.648 27.648h671.232c64.512 0 116.736-52.224 116.736-116.736v-671.744c0-15.36-12.288-27.648-27.648-27.648zM759.808-83.456H142.848c-54.784 0-99.328 44.544-99.328 99.328V633.344c0 54.784 44.544 99.328 99.328 99.328h617.472c54.784 0 99.328-44.544 99.328-99.328V15.36c-0.512-54.784-45.056-98.816-99.84-98.816zM142.848 677.376c-24.576 0-44.032-19.968-44.032-44.032V15.36c0-24.576 19.968-44.032 44.032-44.032h617.472c24.576 0 44.032 19.968 44.032 44.032V633.344c0 24.576-19.968 44.032-44.032 44.032H142.848zM651.776 198.144l-168.96 375.808c-2.56 6.144-7.168 10.752-12.8 14.336-11.264 6.656-25.6 7.168-36.864 0.512-5.632-3.584-10.24-8.704-12.8-14.848l-168.96-375.296c-2.048-3.584-3.072-7.68-3.072-11.776 0-7.168 3.072-14.336 9.216-18.944 5.632-5.12 12.8-7.68 19.968-7.68 11.264-0.512 22.016 6.656 25.6 17.408l40.96 92.16h215.552l40.448-92.16c3.584-10.752 14.336-17.92 25.6-17.408 7.168 0 14.336 2.56 19.968 7.168 5.632 4.608 8.704 11.776 8.704 18.944 0 4.096-1.024 8.192-2.56 11.776z m-285.184 122.88l84.992 193.024 85.504-193.024H366.592zM638.976 37.888h-363.52c-15.36 0-27.648 12.288-27.648 27.648 0 15.36 12.288 27.648 27.648 27.648h363.52c15.36 0 27.648-12.288 27.648-27.648-0.512-15.36-12.8-27.648-27.648-27.648z"  horiz-adv-x="1024" />

    
    <glyph glyph-name="zhongduan" unicode="&#59113;" d="M850.432 108.032h-166.4l-20.992 31.232c0 17.408-13.824 31.232-31.232 31.232h-77.824c-17.408 0-31.232-13.824-31.232-31.232l-20.992-31.232h-41.984v-46.592h392.192c12.8 0.512 23.04 11.264 22.528 24.064 0 13.312-10.752 23.04-24.064 22.528zM350.208 568.32H122.88c-31.232 0-56.32-25.088-56.32-56.32v-388.096c0-31.232 25.088-56.32 56.32-56.32h227.328c31.232 0 56.32 25.088 56.32 56.32V512c0 31.232-25.6 56.32-56.32 56.32z m-151.04-43.52c0.512 1.024 2.048 2.048 3.072 2.048h68.608c2.048-0.512 3.072-2.048 3.072-4.096 0-1.536-1.536-2.56-3.072-3.072H202.24c-1.536 0-2.56 0.512-3.072 1.536-1.024 1.024-1.024 2.56 0 3.584z m37.376-424.96c-8.704 0-15.36 7.168-15.36 15.36 0 8.704 7.168 15.36 15.36 15.36 8.704 0 15.36-7.168 15.36-15.36s-6.656-15.36-15.36-15.36z m113.664 53.248H122.368V482.816h227.328l0.512-329.728zM873.984 716.8H312.32c-51.712 0-93.696-41.984-93.696-93.696v-5.12h178.176c34.816 0 62.976-28.16 62.976-62.976v-337.92h414.208c51.712 0 93.696 41.984 93.696 93.696v312.32c0 51.712-41.984 93.696-93.696 93.696z"  horiz-adv-x="1024" />

    
    <glyph glyph-name="dingzhi" unicode="&#59508;" d="M241.811085 809.667447c45.564403 45.564403 76.740047 45.564403 127.100703 0l107.116315-107.116315 35.971897 35.971897L395.291179 855.23185C369.711163 875.216237 339.334895 891.203747 303.362998 891.203747c-30.376269 0-66.348165-15.188134-86.332553-35.971897L8.393443 646.594848l35.971897-35.971897 197.445745 199.044496zM247.406714 478.725995l-10.391882 10.391882 101.520687 101.520687-35.971897 35.971897-100.721311-102.320063-35.971897 35.971897h-4.796253 4.796253l71.144418 66.348166-35.971897 35.971897-71.144418-71.144419-51.160031 55.956284-35.971897-35.971897 167.868852-167.868852 36.771273 35.172521z m737.823575-219.028883l-122.30445 122.304449-35.971897-35.971897 111.912569-111.912568c45.564403-45.564403 45.564403-76.740047 0-127.100703L775.793911-56.056206l-51.160031 51.160031-71.144419 71.144419-35.971897 35.971897-15.188134 15.188134-35.971897-35.971897 173.464481-173.464481 35.971897-35.971897 208.637002 208.637002c25.580016 25.580016 35.971897 55.956284 35.971897 86.332553 0.799375 41.567525-14.388759 72.743169-35.172521 92.727557zM607.125683 93.42701l104.718189 103.918814 35.971897-35.971897L643.09758 56.655738l-35.971897 36.771272z m378.104606 486.819672c19.984387 25.580016 35.971897 55.956284 35.971897 86.332553s-15.188134 66.348165-35.971897 86.332553L878.913349 860.028103C858.129586 880.811866 822.157689 896 791.781421 896s-66.348165-15.188134-86.332553-35.971897L120.306011 270.088993 17.985948-60.852459l-15.188134-51.160031 397.289618 111.912568 585.142857 580.346604z m-615.519126-544.374707l-295.76893-81.5363L160.274785 244.508977l30.376269 30.376269L400.087432 66.248244l-30.376269-30.376269z m65.54879 66.348166L226.622951 310.857143l406.882123 406.882123 208.637003-208.637002c0.799375 0-406.882123-406.882123-406.882124-406.882123z m504.405933 503.606557l-60.752537-60.752537-209.436378 208.637002 60.752537 60.752537c45.564403 45.564403 76.740047 45.564403 127.100703 0l81.5363-81.5363c46.363778-50.360656 46.363778-81.5363 0.799375-127.100702z m-255.800156-571.553474L770.198283 120.605777l35.971897-35.971897L719.837627-1.698673l-35.971897 35.971897z"  horiz-adv-x="1024" />

    
    <glyph glyph-name="double-arrow-left" unicode="&#58881;" d="M460.372459 422.95893c-5.544996-5.417035-9.810378-11.90041501-12.582876-19.023602-0.981038-2.431268-0.981038-5.118458-1.663498-7.677687-0.938384-4.09476601-2.217998-7.890956-2.217999-12.028377 0-4.13742 1.279615-7.890956 2.217999-11.90041501 0.682461-2.559229 0.682461-5.24642 1.706152-7.67768699a54.511578 54.511578 0 0 1 12.540222-19.194218L930.844063-111.53605300000004A56.047116 56.047116 0 0 1 1008.431357-112.64505199999996 52.29358 52.29358 0 0 1 1007.322357-37.275757L573.57569 384.14395701 1007.407665 805.563671a52.29358 52.29358 0 0 1 1.066346 75.36929499c-21.753447 20.473832-56.431 20.047294-77.54464-1.06634599L460.372459 422.95893zM563.765312-37.275757L129.975991 384.143957l433.789321 421.505021c21.753447 20.473832 22.222639 54.170348 1.15165301 75.283988-10.40753101 9.810378-24.44063699 15.270067-39.02824201 15.056797-14.50229799-0.213269-28.407442-6.014188-38.516397-16.20845l-470.556912-457.078306c-5.502342-5.417035-9.767724-11.857761-12.540222-18.980948-1.151653-2.34596-1.15165301-4.990497-1.706153-7.67768699-0.981038-3.966805-2.260652-7.762995-2.260652-11.90041501 0-4.13742 1.279615-7.848302 2.217999-11.85776199 0.682461-2.559229 0.682461-5.24642 1.70615199-7.67768701a53.871771 53.871771 0 0 1 12.45491501-19.194217L487.20171-111.62136098999997a56.132423 56.132423 0 0 1 77.587294-0.98103802 52.421541 52.421541 0 0 1-1.023692 75.36929502z"  horiz-adv-x="1024" />

    
    <glyph glyph-name="tiwen" unicode="&#59492;" d="M1020.736 350.464a105.28 105.28 0 0 1-6.72 21.888l-0.256 0.448-0.192 0.448a176.192 176.192 0 0 1-29.44 44.544 144.512 144.512 0 0 1-38.08 31.488 129.152 129.152 0 0 1-21.056 8.576 105.92 105.92 0 0 1-27.328 4.608c-1.536 0.128-2.624 0.128-3.648 0.128a95.232 95.232 0 0 1-60.48-21.568l-0.512-0.448-0.576-0.576a417.472 417.472 0 0 1-16.832-15.36c-5.632-5.568-10.496-10.24-14.464-13.952l-4.16-3.968-0.128 0.128-2.944-3.072-32.064-30.4 1.28-1.28-2.496-2.688-112.128-115.584-80.192-82.688c-11.712-12.032-21.504-22.144-29.184-30.4l-12.544-13.248-1.792-1.856a131.904 131.904 0 0 1-27.84-41.536c-3.008-5.952-5.76-13.312-9.152-23.872-3.008-9.024-5.952-19.072-9.152-30.016-3.008-10.304-5.824-20.352-8.512-30.08a234.432 234.432 0 0 1-6.4-28.928c-3.52-23.808 0.896-44.288 13.44-60.352 7.552-9.408 23.808-24.32 53.12-24.32 3.648 0 7.488 0.192 11.328 0.64l1.152 0.064 1.088 0.256c6.272 0.96 14.208 2.88 25.6 5.952 9.856 2.624 20.352 5.824 32 9.664 10.88 3.648 21.504 7.424 31.36 11.136 10.88 4.224 19.072 7.68 25.344 10.816 8.384 3.84 16.32 8.768 23.808 14.72a261.248 261.248 0 0 1 29.888 27.328l27.968 29.12a2361.6 2361.6 0 0 0 36.864 37.76l0.32 0.32 0.384 0.32 41.728 43.52 111.936 115.456 36.096 37.312-0.128 0.128 0.448 0.32c3.2 2.88 6.656 6.208 10.368 9.92 2.24 2.304 4.864 4.992 7.808 7.808l13.696 13.696a94.848 94.848 0 0 1 24.448 63.232 190.016 190.016 0 0 1-3.072 24.448zM782.208 115.2l-41.728-43.52c-13.888-13.952-26.304-26.752-37.568-38.4l-27.648-28.8a228.352 228.352 0 0 0-24.96-23.104 63.36 63.36 0 0 0-14.08-8.704 265.792 265.792 0 0 0-21.44-9.152c-9.344-3.52-19.2-7.04-29.44-10.432a467.328 467.328 0 0 0-49.728-13.696 54.144 54.144 0 0 0-5.632-0.32c-6.272 0-10.688 1.536-13.12 4.608-3.072 3.968-3.968 10.624-2.624 19.968 0.64 5.12 2.304 12.352 4.928 21.76l8.384 29.568c3.008 10.24 5.824 19.712 8.576 28.16 2.752 8.64 5.12 14.592 6.848 17.792 2.112 4.928 4.416 9.6 7.04 13.632 2.56 4.096 6.4 8.704 11.264 13.696l14.656 15.296c7.552 8.128 17.152 18.048 28.608 29.824l38.016 39.232 154.24 159.04 97.472-101.12-112-115.328z m187.2 196.864a43.136 43.136 0 0 0-8.384-13.44l-11.264-11.328a314.24 314.24 0 0 1-8.576-8.64 118.272 118.272 0 0 0-7.808-7.488L835.84 371.84l14.848 14.336c5.76 5.504 10.56 9.856 14.336 13.184a45.44 45.44 0 0 0 28.928 10.496h1.472c5.056-0.256 9.92-1.024 14.528-2.432 4.736-1.472 8.832-3.072 12.224-4.864 7.296-3.968 15.424-10.816 24.256-20.608 8.96-9.92 15.744-20.16 20.544-30.912a66.176 66.176 0 0 0 4.608-24.768 34.816 34.816 0 0 0-2.24-14.144zM353.408-56H136.832c-37.248 0-67.392 31.168-67.392 69.632V755.584c0 38.4 30.272 69.504 67.392 69.504H856.32c37.248 0 67.392-31.168 67.392-69.504v-188.864c0-19.52 15.36-35.264 34.176-35.264a34.688 34.688 0 0 1 34.112 35.2V755.648C992.064 832.832 931.2 895.616 856.32 895.616H136.896C61.888 895.616 0.96 832.832 0.96 755.584v-741.952c0-77.248 60.928-140.16 135.808-140.16h216.576a34.688 34.688 0 0 1 34.112 35.264c0 19.52-15.296 35.2-34.112 35.2zM767.808 665.6c0 19.52-15.36 35.2-34.176 35.2H246.656a34.688 34.688 0 0 1-34.112-35.2c0-19.456 15.296-35.2 34.112-35.2h487.04a34.688 34.688 0 0 1 34.112 35.2zM246.656 514.944a34.688 34.688 0 0 1-34.112-35.264c0-19.52 15.296-35.2 34.112-35.2h336a34.688 34.688 0 0 1 34.112 35.2c0 19.456-15.296 35.2-34.112 35.2h-336z m190.784-198.848h-190.72a34.688 34.688 0 0 1-34.176-35.2c0-19.584 15.296-35.328 34.112-35.328h190.784a34.688 34.688 0 0 1 34.176 35.264c0 19.52-15.36 35.2-34.176 35.2z"  horiz-adv-x="1024" />

    
    <glyph glyph-name="home" unicode="&#58880;" d="M950.247 438.57c-20.923 21.71-41.77 43.491-62.61 65.28a13453.363 13453.363 0 0 0-46.407 48.722c-38.498 40.653-76.93 81.365-115.44 122.01-18.179 19.184-36.353 38.374-54.738 57.36-19.205 19.831-38.588 39.49-58.03 59.091-12.843 12.947-27.516 23.424-44.099 31.09-16.168 7.474-32.765 11.32-49.756 11.32-8.751 0-17.61-1.021-26.564-3.092-25.541-5.91-46.802-19.734-65.784-37.209-8.946-8.232-17.097-17.332-25.567-26.076a43348.893 43348.893 0 0 1-49.55-51.238c-17.643-18.27-35.285-36.536-52.884-54.847-18.113-18.846-36.166-37.752-54.257-56.621-36.598-38.165-73.189-76.34-109.813-114.483-17.691-18.425-35.7-36.552-53.091-55.256-12.342-13.273-16.295-29.778-12.969-47.183 3.457-18.086 14.726-31.04 31.247-39.25 13.7-6.81 28.33-9.244 43.474-9.244h0.556c3.988 0.016 7.974 0.021 12.002 0.021 6.456 0 13.017-0.012 19.848-0.012 0-2.572 0-4.482 0.004-6.395 0-100.144-0.036-200.287 0.076-300.432 0.01-7.368 0.235-14.925 1.827-22.067 4.995-22.428 17.322-40.431 35.447-54.367 15.842-12.18 33.607-18.632 53.81-18.632 0.346 0 0.697 0.002 1.046 0.005 10.753 0.118 21.503 0.147 32.257 0.147 10.428 0 20.861-0.027 31.289-0.027 13.585 0 27.17 0.046 40.753 0.259l294.445-0.341c15.91 0.12 31.819 0.15 47.73 0.15 15.178 0 30.356-0.027 45.534-0.027 3.827 0 7.656 0 11.484 0.006h0.198c0.724 0 1.45-0.005 2.175-0.005 2.184 0 4.374 0.044 6.502 0.402 22.413 3.77 40.463 15.115 55.546 31.836 16.66 18.47 24.628 40.1 24.624 64.843-0.012 99.549-0.005 199.098-0.005 298.65v5.996c6.816 0 13.384-0.016 19.859-0.016 3.995 0 7.954 0.006 11.913 0.025 18.748 0.093 36.614 3.446 52.291 14.556 11.345 8.037 19.297 18.739 21.808 32.386 3.7 20.102-1.866 37.81-16.18 52.665zM594.405-1.414l-153.705 0.178v159.37c0 22.624 18.34 40.964 40.964 40.964h71.778c22.624 0 40.964-18.34 40.964-40.964v-159.548z m297.618 401.777c-3.856-0.02-7.712-0.025-11.604-0.025-3.17 0-6.364 0.004-9.599 0.007-3.37 0.004-6.783 0.008-10.26 0.008-33.91 0-61.399-27.489-61.399-61.398v-83.176c-0.002-73.826-0.003-147.651 0.005-221.48 0.002-9.894-2.553-16.764-8.816-23.709-7.293-8.084-13.108-10.804-17.908-11.961l-0.725 0.001h-0.268c-3.805-0.004-7.61-0.006-11.415-0.006-7.571 0-15.142 0.006-22.713 0.013-7.607 0.007-15.214 0.014-22.821 0.014-13.05 0-30.273-0.018-47.936-0.15l-16.267 0.02V158.133c0 53.49-43.366 96.857-96.857 96.857h-71.778c-53.49 0-96.856-43.366-96.856-96.857v-159.305l-12.41 0.014h-0.05c-0.328 0-0.656-0.002-0.983-0.007-14.147-0.222-28.053-0.252-39.79-0.252-5.187 0-10.376 0.006-15.564 0.013-5.242 0.007-10.485 0.015-15.725 0.015-13.266 0-23.422-0.046-32.92-0.15l-0.383-0.003c-6.181 0-10.928 1.711-16.387 5.908-9.276 7.132-11.788 13.891-12.931 18.993-0.137 0.745-0.361 2.876-0.369 8.834-0.09 80.283-0.083 161.925-0.078 240.88l0.003 59.483v0.121c-0.004 1.876-0.004 3.75-0.004 6.273 0 33.91-27.49 61.398-61.399 61.398a10932 10932 0 0 0-10.15 0.006c-3.271 0.004-6.498 0.006-9.698 0.006-4.105 0-8.17-0.004-12.27-0.02h-0.289c-3.438 0-6.458 0.22-9.094 0.667 8.53 9.01 17.223 17.96 26.303 27.307a4636.704 4636.704 0 0 1 18.419 19.036c29.809 31.045 60.087 62.623 89.368 93.16l20.474 21.354c7.07 7.373 14.133 14.75 21.195 22.129a24464.611 24464.611 0 0 0 33.01 34.44c16.339 16.998 33.017 34.27 49.145 50.972l3.641 3.771a43019.683 43019.683 0 0 0 49.481 51.166c2.687 2.775 5.269 5.5 7.766 8.137 5.384 5.684 10.47 11.053 15.288 15.489 13.62 12.538 25.707 19.707 38.036 22.56 4.34 1.004 8.622 1.514 12.726 1.514 7.916 0 15.764-1.85 23.99-5.652 9.724-4.496 18.319-10.58 26.272-18.596 23.355-23.548 41.094-41.611 57.515-58.567 17.78-18.362 35.772-37.35 53.17-55.712l1.104-1.166c20.587-21.728 41.506-43.85 61.737-65.245 17.894-18.922 35.786-37.844 53.694-56.753a13414.562 13414.562 0 0 1 46.616-48.943c19.443-20.328 38.537-40.28 57.952-60.445-2.33-0.341-5.329-0.58-9.194-0.6z"  horiz-adv-x="1024" />

    
    <glyph glyph-name="wenjian" unicode="&#59047;" d="M1024 581.2v-542.3c0-54.2-43.9-98.6-97.5-98.6h-829C43.9-59.7 0-15.4 0 38.9V729.1c0 54.2 43.9 98.6 97.5 98.6h341.3c87.8 0 63.4-147.9 146.3-147.9h336.5c58.5 0 102.4-39.4 102.4-98.6z m-877.1-49.4c-27.2 0-49.3-22.1-49.3-49.3 0-27.2 22.1-49.3 49.3-49.3h730.8c27.2 0 49.3 22.1 49.3 49.3 0 27.2-22.1 49.3-49.3 49.3H146.9z"  horiz-adv-x="1024" />

    
    <glyph glyph-name="clock" unicode="&#58999;" d="M512-85.333333C251.733333-85.333333 42.666667 123.733333 42.666667 384S251.733333 853.333333 512 853.333333s469.333333-209.066667 469.333333-469.333333-209.066667-469.333333-469.333333-469.333333z m0 853.333333c-213.333333 0-384-170.666667-384-384s170.666667-384 384-384 384 170.666667 384 384-170.666667 384-384 384zM640 213.333333c-12.8 0-21.333333 4.266667-29.866667 12.8l-128 128c-8.533333 8.533333-12.8 17.066667-12.8 29.866667V640c0 25.6 17.066667 42.666667 42.666667 42.666667s42.666667-17.066667 42.666667-42.666667v-238.933333l115.2-115.2c17.066667-17.066667 17.066667-42.666667 0-59.733334-8.533333-8.533333-17.066667-12.8-29.866667-12.8z"  horiz-adv-x="1024" />

    
    <glyph glyph-name="xiangmu" unicode="&#58946;" d="M920.2 781.2H656.3c-11.1 0-21.8 4.1-30.1 11.5L524.9 882.8c-8.3 7.4-19 11.5-30.1 11.5h-391c-25 0-45.4-20.3-45.4-45.4v-929.8c0-25 20.3-45.4 45.4-45.4h816.4c25 0 45.4 20.3 45.4 45.4V735.9c-0.1 25-20.4 45.3-45.4 45.3z m-681.8-29.1c0 15.7 12.7 28.3 28.3 28.3h178.6c15.7 0 28.3-12.7 28.3-28.3 0-15.7-12.7-28.3-28.3-28.3H266.7c-15.6 0-28.3 12.6-28.3 28.3z m-89.3-28.3c-15.7 0-28.3 12.7-28.3 28.3 0 15.7 12.7 28.3 28.3 28.3h24.2c15.7 0 27.3-12.7 27.3-28.3 0-15.7-11.7-28.3-27.3-28.3h-24.2z m475.2-651.5c0-15.7-12.7-28.3-28.3-28.3H199.1c-15.7 0-28.3 12.7-28.3 28.3 0 15.7 12.7 28.3 28.3 28.3H596c15.6 0.1 28.3-12.6 28.3-28.3z m0 170c0-15.7-12.7-28.3-28.3-28.3H199.1c-15.7 0-28.3 12.7-28.3 28.3 0 15.7 12.7 28.3 28.3 28.3H596c15.6 0.1 28.3-12.6 28.3-28.3z m226.8 203.2c0-29-23.5-52.4-52.4-52.4H223.2c-29 0-52.4 23.5-52.4 52.4 0 29 23.5 52.4 52.4 52.4h575.4c29 0.1 52.5-23.4 52.5-52.4z"  horiz-adv-x="1024" />

    
    <glyph glyph-name="pingjia" unicode="&#58898;" d="M884.266667 459.306667a29.653333 29.653333 0 0 1-29.44-30.506667v-401.706667a72.746667 72.746667 0 0 0-71.04-74.026666H151.04C110.933333-46.933333 64-12.8 64 27.093333V659.84a94.933333 94.933333 0 0 0 87.04 82.773333h341.333333a29.226667 29.226667 0 1 1 0 58.453334h-341.333333a142.08 142.08 0 0 1-145.28-141.226667v-632.746667c0-80 65.28-132.48 145.28-132.48h632.746667c80.213333 0 129.706667 52.48 129.706666 132.48V428.8a29.44 29.44 0 0 1-29.226666 30.506667zM974.933333 760.32l-103.253333 103.04a92.373333 92.373333 0 0 1-128 0l-85.333333-98.986667L210.773333 334.933333 181.12 77.653333l14.293333-12.586666 251.093334 34.346666 429.44 449.066667 98.986666 80.853333a94.506667 94.506667 0 0 1 0 130.986667zM252.8 136.96l7.253333 120.32 111.36-111.146667z m172.373333 40.533333l-136.32 136.106667L690.346667 712.533333l133.76-133.546666z m507.306667 497.92l-59.946667-59.733333-145.706666 145.493333 59.946666 59.733334a28.8 28.8 0 0 0 21.333334 8.746666 29.653333 29.653333 0 0 0 21.333333-8.746666l102.826667-103.04a29.866667 29.866667 0 0 0 0-42.666667z m0 0"  horiz-adv-x="1024" />

    
    <glyph glyph-name="xiaoxi--copy" unicode="&#58936;" d="M858.54017893 775.74107107h-632.8125A74.73214298 74.73214298 0 0 1 150.39285703 700.40625v-479.12946405A75.33482107 75.33482107 0 0 1 225.72767893 142.92857106999998h129.57589214v-108.48214215a41.28348202 41.28348202 0 0 1 42.1875-42.1875 53.63839298 53.63839298 0 0 1 30.13392893 12.05357108l138.61607107 138.61607107h289.28571488a74.73214298 74.73214298 0 0 1 75.33482107 75.3348219v482.14285703A70.51339298 70.51339298 0 0 1 858.54017893 775.74107107z m-222.99107191-445.98214214H310.10267893a39.17410702 39.17410702 0 0 0 0 78.34821405h325.44642809a39.17410702 39.17410702 0 0 0 1e-8-78.34821405z m138.6160719 180.80357107H310.10267893A37.96875 37.96875 0 0 0 270.92857107 549.73660703a39.77678595 39.77678595 0 0 0 39.17410785 39.17410702h464.0625A39.77678595 39.77678595 0 0 0 813.33928595 549.73660703a37.96875 37.96875 0 0 0-39.17410702-39.17410703z"  horiz-adv-x="1097" />

    
    <glyph glyph-name="shezhi" unicode="&#58899;" d="M933.669547 384c0 59.880107 37.597867 110.615893 90.27584 130.843307a524.987733 524.987733 0 0 1-57.367894 138.612053c-51.653973-22.96832-114.046293-13.59872-156.327253 28.798293-42.28096 42.28096-51.65056 104.789333-28.68224 156.327254A527.305387 527.305387 0 0 1 642.839893 895.945387C622.503253 843.264 571.767467 805.669547 512 805.669547c-59.880107 0-110.615893 37.597867-130.843307 90.27584a525.093547 525.093547 0 0 1-138.612053-57.36448c22.96832-51.65056 13.59872-114.046293-28.68224-156.327254s-104.789333-51.65056-156.32384-28.798293A521.413973 521.413973 0 0 1 0.054613 514.843307C52.736 494.503253 90.330453 443.764053 90.330453 384c0-59.880107-37.597867-110.615893-90.27584-130.843307a525.04576 525.04576 0 0 1 57.36448-138.612053c51.65056 22.96832 114.046293 13.59872 156.327254-28.798293 42.28096-42.28096 51.65056-104.789333 28.68224-156.327254a527.36 527.36 0 0 1 138.728106-57.367893c20.340053 52.681387 71.079253 90.27584 130.843307 90.27584 59.880107 0 110.615893-37.597867 130.843307-90.27584a524.936533 524.936533 0 0 1 138.612053 57.367893c-22.96832 51.653973-13.59872 114.046293 28.68224 156.327254s104.78592 51.65056 156.327253 28.798293a521.519787 521.519787 0 0 1 57.480534 138.612053c-52.677973 20.227413-90.27584 70.9632-90.27584 130.843307zM512 243.442347c-77.591893 0-140.557653 62.962347-140.557653 140.557653 0 77.591893 62.96576 140.557653 140.557653 140.557653 77.591893 0 140.557653-62.96576 140.557653-140.557653 0-77.591893-62.96576-140.557653-140.557653-140.557653z"  horiz-adv-x="1024" />

    
    <glyph glyph-name="qq1" unicode="&#58911;" d="M156.703995 351.987025l-1.901303 5.900384-1.508353 7.721869-1.063215 4.229325 0.011256 5.29561 0.01228 6.349615 0.011256 5.734608 1.847068 6.803963 1.923816 7.260357 2.462075 7.546883 3.346211 8.445346 4.418636 8.762571 6.210445 8.78406 0.01228 6.176676 0.624217 5.749958 0.932232 7.861038 2.693342 8.750291 2.466168 9.517771 1.958608 4.397147 2.2656 4.062526 2.913353 4.526083 3.146667 3.340071 0.01228 6.176676 0.014326 6.979972 0.017396 8.599865 1.856277 11.20418 1.860371 12.997012L196.568934 550.716158l4.548596 16.166191 3.381004 8.919137 3.349281 9.670244 3.645017 9.052167 4.380774 9.670244 4.462638 10.586103 5.142114 9.94756 5.757121 10.574846 7.287987 10.586103 3.340071 6.031367 3.603061 4.982478 7.786337 11.169387 7.975649 11.169387 9.121751 11.470239 9.735735 11.17962 10.577916 10.991332 11.036357 11.339256 13.335726 12.20702 8.501628 7.402597 10.301623 7.988951 10.454096 7.071046 11.336186 6.78452 10.870582 6.01704 12.249999 4.973268 13.012362 6.184863 12.93459 4.197602L417.625586 791.397776l13.926174 4.350075 13.926174 3.300162 14.690584 2.709715 14.84101 2.37714 14.615882 1.935072 14.68956 1.957585 15.59928 0.851391 14.838963-0.030699 15.374152-0.031722 15.904225-0.031722 15.369036-1.980097 15.442714-1.870604 15.752776-1.693572 14.598486-3.507894 15.440667-3.343141 14.482853-3.793396 15.862269-4.273327 14.519692-5.175883 13.911848-5.91778 14.823614-6.248308 13.560854-6.834662 13.139252-7.556093 12.863982-8.363482 11.150968-7.730055 5.113461-4.386914 5.424546-3.184529 10.30674-8.795317 8.702196-8.491395 8.622378-8.788154 8.465812-9.688663 6.943133-9.388834 8.242731-9.688663 5.788843-10.432607 5.836939-9.248641 6.205329-10.754948 5.104251-9.379625 8.679683-19.826558 4.266164-10.276041 3.303232-9.522887 3.309372-10.298554 2.959402-9.676383 2.12643-8.323573 2.654456-9.830903 4.709255-17.543561 2.987031-15.281031 1.917676-14.81952 1.659803-11.933797 2.639107-18.151405 0.606821-2.889817 2.1295-3.331885 5.717212-9.380648 3.660366-6.333242 3.27458-6.675026 4.192485-7.102768 3.654226-8.499581 2.354628-8.759501 2.581802-9.528004 1.968841-9.813506 0.906649-4.837168 0.74906-5.90857-0.011256-5.145184-0.77055-5.136997-0.01228-6.367011-1.548262-6.173606-2.774183-11.946077-3.146667-6.033413-2.311649-6.80294-0.00307-1.667989 1.066285-2.121314 3.130294-4.996804 13.566994-20.139689 10.753925-15.126512 5.107321-10.145058 6.933923-11.044544 6.02011-12.113899 6.928806-12.997012 6.931876-14.545274 7.804756-16.494673 4.378727-10.126638 4.030803-9.836019 3.496637-10.446933 3.423983-9.375531 2.579755-9.830903 2.656503-9.241478 3.326768-17.996886 2.639107-18.432815 1.801019-16.33299-0.017396-8.909927-0.014326-7.265474-0.014326-6.807033-1.237177-8.178263-1.794879-14.052041-2.466168-12.685927-3.768837-11.463076-1.385557-4.685719-2.611477-5.597485-2.225691-3.932566-2.919493-4.828982-2.602268-3.038196-3.297093-3.913123-2.912329-3.169179-3.14462-2.709715-3.751441-1.653663-3.366677-1.655709-2.752694-0.89437-2.410909 0.005117-1.798972 0.00307-2.709715 0.905626-5.15644 2.571568-2.368954 1.666966-2.448772 1.821485-2.705622 2.436492-2.709715 2.719948-4.500501 4.999874-5.341658 7.104815-4.190439 7.28901-4.193509 5.876847-4.076852 6.815219-5.752004 12.119015-6.476505 12.57234-0.76134 0.444115-1.071402 0.002047-2.680039-1.965771-1.537006-3.301186-2.52859-4.087085-4.466732-12.246929-6.687306-17.364483-8.602935-20.843724-6.449899-10.428513-6.788613-10.865465-8.017604-12.216229-8.510838-11.951193-4.372587-5.424546-5.28947-5.871731-12.141528-11.92868 1.063215-1.050935 1.641383-1.687432 6.037507-3.628644 25.210172-12.134365 10.998495-6.216585 10.468422-6.060019 10.383488-7.596002 9.237385-7.891737 4.503571-3.493567 3.358491-4.098341 3.434216-4.671393 2.89391-5.169743 1.521656-4.241604 1.896186-5.132904 0.760317-4.363378 0.906649-5.16258-0.924045-3.477194-0.00614-3.442402-0.775666-3.671623-1.914606-3.278673-0.774643-2.600221-1.684362-3.130294-4.602831-6.224772-4.221138-5.004991-3.291976-3.734044-2.761903-2.750647-6.971785-5.108345-7.881504-4.383844-8.419763-4.229325-8.959046-4.03285-10.104125-3.8814-5.361101-1.673106-4.814656-1.359974-11.631922-2.691295-12.088316-2.536776-12.090363-2.576685-13.153578-2.080382-13.616112-0.546446-13.926174-1.650593-13.763468 0.028653-14.529925 0.030699-14.913665 0.030699-15.600303 0.948605-14.527878 1.367137-15.597233 2.139733-15.519462 1.710968-16.358573 2.331092-15.8285 3.933589-15.434527 3.086291-15.363919 4.39203-15.744589 5.612834-15.437597 4.739954-8.102538 2.727111-7.260357 2.616594-4.585435 1.76725-4.508687 0.932232-5.889127 0.01228-6.962575 0.014326-14.832823 1.094938-7.532557 0.783853-9.676383 1.083681-6.199189-5.566786-8.502651-5.29561-11.481496-5.601578-12.71151-6.931876-7.732102-3.736091-8.032954-3.003404-17.83418-7.228635-9.682523-2.38635-10.135848-2.730181-14.077623-2.653433-8.79634-0.743944-9.329483-0.74906-9.719362-1.045819-11.317767-0.442068-10.857279 0.022513-11.32186 0.022513-24.048719 0.049119-26.119891 0.518816-25.302269 2.647293-12.848633 1.790786-12.384052 1.858324-12.082176 1.858324-12.079106 2.431376-11.192923 3.662413-11.202133 2.584871-10.087753 4.106528-9.550517 3.771907-8.860808 4.297886-7.720845 4.680603-7.706519 5.603625-2.594081 2.755764-3.437286 3.301186-2.594081 2.904143-2.360767 3.292999-2.134617 3.366677-1.678222 3.300162-2.393513 7.114025-0.874927 3.634784-1.063215 4.093225 0.008186 3.747347 1.080611 4.244674 0.008186 4.240581 0.8913 4.243651 0.005117 2.567475 0.01228 5.884011 0.429789 4.548596 1.998517 5.15951 1.695618 5.118578 3.072989 6.194072 2.215458 2.400676 1.845021 2.712785 4.831029 5.880941 3.828188 3.050476 3.596921 2.095731 3.334955 2.704598 5.321192 1.673106 4.209882 2.51938 5.281283 2.739391 6.04467 1.786693 6.048763 1.821485 6.963599 1.481747 6.65456 0.903579 7.873318 1.032516 8.493441 0.595564 2.25946 0.756223 0.459464-0.002047 1.072425 0.914836 0.002047 1.037632-1.52575 2.124384-4.54348 2.134617-11.30344 9.848299-7.562233 6.053879-8.772804 7.724938-8.852622 8.618285-9.237385 11.073196-10.528797 12.413727-3.969405 6.66377-5.256724 6.949272-4.498454 8.043187-4.03285 8.762571-5.489014 8.330736-3.580548 9.525957-4.219091 9.531074-4.224208 10.602476-3.118014 10.120498-2.879584 12.564154-0.916882 0.461511-0.874927 0.002047-0.456395 0.900509-1.071402 0.002047-1.802042-0.895393-0.917906-0.456395-1.231037-2.117221-0.462534-2.560312-0.920976-2.27788-1.612731-3.761674-5.221932-9.226129-2.687202-5.592368-4.25593-4.827959-4.560876-5.863545-4.987594-6.510274-5.28947-5.742794-6.204305-5.568832-5.786797-5.26491-6.310729-4.099365-6.969739-4.364401-6.65763-2.548032-7.881504-1.955538-7.724938-0.727571-0.76748 0.002047-1.066285 0.002047-1.762133 0.747014-1.36816 3.046383-2.289136 1.493004-2.969635 7.271614-1.824555 3.939729-1.976004 5.606695-1.63115 5.870708-0.871857 5.760191-2.420119 13.161764-0.900509 7.726985 0.016373 7.854898 0.034792 17.532305 0.954745 18.889209 1.550309 9.670244 1.820462 9.976212 1.666966 10.723226 2.924609 9.976212 3.312442 11.504008 3.38612 11.161201 4.538363 11.494799 4.26207 11.028171 5.877871 11.167341 5.531993 12.079106 6.675026 11.320836 7.864108 12.238742 8.015557 11.019984 8.362458 12.214183 6.973832 8.461719 8.92937 9.80225 9.388834 9.807367 4.371564 4.679579 5.327332 5.28947 7.696286 6.65456 7.892761 6.774287 12.869099 11.463076 9.731642 7.074116L156.703995 351.987025z"  horiz-adv-x="1024" />

    
    <glyph glyph-name="weixin" unicode="&#58967;" d="M670.308969 528.833427c10.283697 0 20.460966-0.733746 30.551249-1.8666-27.453552 127.840612-164.126744 222.821287-320.138281 222.821287-174.419652 0-317.288236-118.86681-317.288236-269.823995 0-87.170427 47.529736-158.688634 126.96462-214.205658l-31.737317-95.440161 110.920456 55.615266c39.688788-7.846065 71.535605-15.935689 111.140477-15.935689 9.956224 0 19.824439 0.500421 29.621019 1.26589-6.19437 21.200851-9.792487 43.415848-9.792487 66.4833C400.550469 416.356447 519.586133 528.833427 670.308969 528.833427L670.308969 528.833427zM497.473472 621.299717c27.090261 0 49.052489-21.961204 49.052489-49.052489 0-27.093331-21.962228-49.051466-49.052489-49.051466-27.095378 0-49.055559 21.961204-49.055559 49.051466C448.416889 599.339536 470.378094 621.299717 497.473472 621.299717L497.473472 621.299717zM275.475986 522.205155c-27.090261 0-49.052489 21.961204-49.052489 49.051466 0 27.094355 21.962228 49.056582 49.052489 49.056582 27.095378 0 49.055559-21.962228 49.055559-49.056582C324.531545 544.166359 302.570341 522.205155 275.475986 522.205155L275.475986 522.205155zM957.660994 280.524454c0 126.850004-126.93392 230.250846-269.505731 230.250846-150.967419 0-269.864929-103.400841-269.864929-230.250846 0-127.066956 118.897511-230.241636 269.864929-230.241636 31.594048 0 63.468495 7.973984 95.201719 15.929548l87.032274-47.670959-23.864645 79.292638C910.215172 145.611433 957.660994 208.970429 957.660994 280.524454L957.660994 280.524454zM605.251204 316.085026c-19.293317 0-34.932233 15.641986-34.932233 34.935303 0 19.289224 15.638915 34.927116 34.932233 34.927116 19.2882 0 34.927116-15.637892 34.927116-34.927116C640.182413 331.727012 624.539404 316.085026 605.251204 316.085026L605.251204 316.085026zM779.675972 314.105857c-19.297411 0-34.932233 15.638915-34.932233 34.928139 0 19.293317 15.637892 34.930186 34.932233 34.930186 19.2882 0 34.932233-15.637892 34.932233-34.930186C814.607181 329.743749 798.964173 314.105857 779.675972 314.105857L779.675972 314.105857zM779.675972 314.105857"  horiz-adv-x="1024" />

    
    <glyph glyph-name="dizhi" unicode="&#58905;" d="M512.768-128H512a65.536 65.536 0 0 0-47.283 20.224c-9.677 10.112-97.434 102.656-184.73 219.904C162.15 270.336 102.4 396.544 102.4 487.091 102.4 712.576 286.157 896 512 896s409.6-183.424 409.6-408.883c0-54.784-21.12-121.907-62.746-199.45-40.166-74.777-100.556-161.638-179.532-258.201l-0.64-0.768-117.53-134.4A64.589 64.589 0 0 0 512.768-128zM512 295.706c105.728 0 191.744 85.862 191.744 191.41S617.728 678.529 512 678.529s-191.744-85.862-191.744-191.411S406.272 295.706 512 295.706z"  horiz-adv-x="1024" />

    
    <glyph glyph-name="dianhua" unicode="&#58901;" d="M594.651 187.1l27.795 17.261c10.898 6.583 19.821 11.484 28.818 15.506 62.903 28.672 118.491 8.412 191.927-77.458 45.422-53.102 58.88-100.206 41.326-142.19-13.02-31.378-38.181-53.028-83.018-79.725-2.925-1.756-28.745-16.823-35.328-20.846-104.301-64.366-343.405 82.944-515.364 334.702C78.409 486.766 33.792 755.93 139.483 821.248l13.898 8.777 15.213 9.874C221.99 874.496 256.22 888.32 296.814 881.445c40.52-6.949 74.971-36.938 104.009-91.502 61.44-115.493 47.908-170.277-31.159-220.014-5.705-3.657-25.893-15.872-27.794-17.042-19.31-11.996 13.458-92.38 89.746-204.069 77.312-112.932 141.897-174.738 163.035-161.572z"  horiz-adv-x="1024" />

    
    <glyph glyph-name="qq" unicode="&#58928;" d="M512 896c-282.624 0-512-229.376-512-512s229.376-512 512-512 512 229.376 512 512-229.376 512-512 512zM793.6 224.256c-13.312-12.288-35.84 1.024-57.344 31.744-9.216-25.6-21.504-49.152-35.84-70.656 30.72-11.264 51.2-28.672 51.2-47.104 0-33.792-59.392-60.416-132.096-60.416-43.008 0-81.92 9.216-106.496 24.576-23.552-14.336-62.464-24.576-106.496-24.576-72.704 0-132.096 26.624-132.096 60.416 0 19.456 19.456 36.864 51.2 47.104-14.336 21.504-26.624 45.056-35.84 70.656-21.504-29.696-44.032-44.032-57.344-31.744-18.432 17.408-11.264 76.8 15.36 134.144 6.144 13.312 12.288 24.576 19.456 34.816 4.096 164.864 112.64 297.984 245.76 297.984s242.688-132.096 245.76-297.984c7.168-10.24 13.312-21.504 19.456-34.816 26.624-57.344 33.792-116.736 15.36-134.144z"  horiz-adv-x="1024" />

    
    <glyph glyph-name="weixindefuben" unicode="&#58888;" d="M513.344 864.896c-266.133 0-481.856-215.723-481.856-481.835 0-266.133 215.723-481.856 481.856-481.856 266.112 0 481.856 215.723 481.856 481.856 0 266.112-215.744 481.835-481.856 481.835z m-87.381-595.35c-25.984 0-46.891 5.313-72.918 10.411l-72.81-36.458 20.821 62.634c-52.139 36.459-83.328 83.435-83.328 140.608 0 99.115 93.76 177.11 208.235 177.11 102.4 0 192.085-62.336 210.112-146.24a180.203 180.203 0 0 1-20.096 1.258c-98.88 0-176.982-73.834-177.024-164.821 0-15.19 2.389-29.781 6.442-43.69-6.4-0.513-12.885-0.811-19.434-0.811z m307.114-72.98l15.659-52.054-57.088 31.339c-20.843-5.206-41.75-10.411-62.507-10.411-99.072 0-177.088 67.627-177.088 151.104 0 83.221 77.974 151.104 177.088 151.104 93.59 0 176.918-67.84 176.918-151.104 0.021-46.997-31.147-88.576-72.982-119.979zM504.021 483.243c15.744 0 26.07 10.432 26.07 26.026 0 15.659-10.326 26.006-26.07 26.006-15.594 0-31.21-10.304-31.21-26.006 0-15.573 15.68-26.026 31.21-26.026z m-145.706 52.032c-15.638 0-31.382-10.326-31.382-26.006 0-15.594 15.744-26.026 31.382-26.026 15.616 0 25.984 10.432 25.984 26.026 0 15.702-10.368 26.006-25.984 26.006z m213.418-151.062c-10.304 0-20.821-10.432-20.821-20.8 0-10.517 10.496-20.842 20.821-20.842 15.808 0 26.07 10.304 26.07 20.842-0.022 10.368-10.262 20.8-26.07 20.8z m114.56 0c-10.304 0-20.714-10.432-20.714-20.8 0-10.517 10.453-20.842 20.714-20.842 15.659 0 26.048 10.304 26.048 20.842 0 10.368-10.389 20.8-26.048 20.8z"  horiz-adv-x="1024" />

    
    <glyph glyph-name="xinlang" unicode="&#58921;" d="M512 891.345455C231.563636 891.345455 4.654545 664.436364 4.654545 384S231.563636-123.345455 512-123.345455 1019.345455 103.563636 1019.345455 384 792.436364 891.345455 512 891.345455z m280.436364-474.763637c-2.327273-16.290909-10.472727-18.618182-20.945455-18.618182-11.636364 0-20.945455 6.981818-20.945454 19.781819 0 10.472727 4.654545 20.945455 4.654545 20.945454 1.163636 4.654545 11.636364 31.418182-6.981818 70.981818-32.581818 54.690909-98.909091 55.854545-105.890909 52.363637-8.145455-3.490909-19.781818-4.654545-19.781818-4.654546-11.636364 0-20.945455 9.309091-20.945455 20.945455 0 10.472727 6.981818 18.618182 15.127273 20.945454 1.163636 0 1.163636 1.163636 2.327272 1.163637 9.309091 2.327273 41.890909 8.145455 73.309091 1.163636 57.018182-12.8 134.981818-67.490909 100.072728-185.018182z m-155.927273 79.127273c-8.145455 0-15.127273 6.981818-15.127273 15.127273 0 8.145455 6.981818 15.127273 15.127273 15.127272 0 0 91.927273 17.454545 81.454545-81.454545v-1.163636c-1.163636-6.981818-6.981818-12.8-13.963636-12.8-8.145455 0-15.127273 6.981818-15.127273 15.127272 0-1.163636 13.963636 64-52.363636 50.036364z m8.145454-27.927273c24.436364-24.436364 4.654545-59.345455 4.654546-59.345454s-10.472727-11.636364 10.472727-15.127273c20.945455-4.654545 88.436364-34.909091 51.2-114.036364-37.236364-77.963636-158.254545-116.363636-249.018182-109.381818-86.109091 6.981818-195.490909 34.909091-207.127272 138.472727 0 0-5.818182 46.545455 39.563636 108.218182 0 0 65.163636 91.927273 141.963636 117.527273 76.8 25.6 84.945455-17.454545 84.945455-44.218182-3.490909-22.109091-11.636364-34.909091 17.454545-25.6 0-1.163636 74.472727 33.745455 105.890909 3.490909z m-175.70909-57.018182c-89.6-4.654545-161.745455-52.363636-161.745455-111.709091s72.145455-104.727273 161.745455-100.072727c89.6 3.490909 161.745455 60.509091 161.745454 119.854546 0 59.345455-72.145455 96.581818-161.745454 91.927272z m-73.309091-174.545454c-25.6 13.963636-24.436364 40.727273-24.436364 40.727273s-10.472727 83.781818 80.290909 94.254545c89.6 10.472727 105.890909-75.636364 79.127273-111.709091-27.927273-34.909091-82.618182-52.363636-134.981818-23.272727z m31.418181 68.654545c-16.290909-2.327273-29.090909-16.290909-29.090909-30.254545 0-13.963636 13.963636-23.272727 30.254546-22.109091 16.290909 2.327273 30.254545 15.127273 30.254545 29.090909s-12.8 25.6-31.418182 23.272727z m59.345455 10.472728c-3.490909 4.654545-10.472727 6.981818-16.290909 1.163636-5.818182-4.654545-6.981818-11.636364-3.490909-17.454546 3.490909-4.654545 10.472727-5.818182 16.290909-1.163636 3.490909 4.654545 5.818182 12.8 3.490909 17.454546z"  horiz-adv-x="1024" />

    
    <glyph glyph-name="left" unicode="&#59089;" d="M410.84802083 47.339062499999955l336.1434375 336.1584375-336.54 336.55125-88.58625-1e-8-0.37875-0.38437499 336.14906251-336.1659375-336.13781251-336.159375 89.353125 0z"  horiz-adv-x="1024" />

    


  </font>
</defs>
</svg>
